<?xml version="1.0" encoding="utf-8"?>
<!-- Generator: Adobe Illustrator 26.0.3, SVG Export Plug-In . SVG Version: 6.00 Build 0)  -->
<svg version="1.1" id="레이어_1" xmlns="http://www.w3.org/2000/svg" xmlns:xlink="http://www.w3.org/1999/xlink" x="0px"
	 y="0px" viewBox="0 0 500 500" style="enable-background:new 0 0 500 500;" xml:space="preserve">
<style type="text/css">
	.st0{fill:url(#SVGID_1_);}
	.st1{fill:url(#SVGID_00000163031367919755607950000006471507205375289222_);}
	.st2{fill:url(#SVGID_00000113351800031478647850000005907502662481279674_);}
</style>
<linearGradient id="SVGID_1_" gradientUnits="userSpaceOnUse" x1="131.8149" y1="19.7476" x2="189.6376" y2="315.5327" gradientTransform="matrix(0.9995 -0.0324 0.0324 0.9995 -12.9234 13.1552)">
	<stop  offset="0" style="stop-color:#A9D6B9"/>
	<stop  offset="1" style="stop-color:#3A98D5"/>
</linearGradient>
<path class="st0" d="M218.93,453.09c1.93,1.92,5.1-0.63,3.57-2.87c-171.62-251.5-89.56-311.38-59.49-321.38
	c27.83-9.26,73.07-1.13,92.17,3.9c3,0.79,4.98-3.06,2.59-5.03C223.7,99.46,112.65,17.39,53.62,92.81
	C-23.3,200.57,166.58,401.18,218.93,453.09z"/>
<linearGradient id="SVGID_00000024698436650436597800000002714118556978974648_" gradientUnits="userSpaceOnUse" x1="319.5115" y1="289.9125" x2="377.3341" y2="585.6976" gradientTransform="matrix(-0.9988 0.0486 -0.0486 -0.9988 713.1172 730.7917)">
	<stop  offset="0" style="stop-color:#A9D6B9"/>
	<stop  offset="1" style="stop-color:#3A98D5"/>
</linearGradient>
<path style="fill:url(#SVGID_00000024698436650436597800000002714118556978974648_);" d="M273.6,33.93
	c-1.96-1.89-5.09,0.71-3.52,2.93c175.66,248.7,94.58,309.89,64.67,320.38c-27.67,9.7-73.04,2.31-92.22-2.41
	c-3.01-0.74-4.93,3.14-2.51,5.07c34.52,27.68,146.89,107.95,204.69,31.59C519.87,282.5,326.78,84.98,273.6,33.93z"/>
<linearGradient id="SVGID_00000113313626242249091060000003750991508438681480_" gradientUnits="userSpaceOnUse" x1="243.8559" y1="188.5611" x2="243.8941" y2="330.2566">
	<stop  offset="0" style="stop-color:#A9D6B9"/>
	<stop  offset="1" style="stop-color:#3A98D5"/>
</linearGradient>
<circle style="fill:url(#SVGID_00000113313626242249091060000003750991508438681480_);" cx="243.87" cy="242.84" r="50.91"/>
</svg>
