<svg xmlns="http://www.w3.org/2000/svg" width="24" height="24" viewBox="0 0 24 24">
    <defs>
        <clipPath id="mq1aqd91aa">
            <path data-name="사각형 67" transform="translate(703 447)" style="fill:none;stroke:#707070" d="M0 0h24v24H0z"/>
        </clipPath>
    </defs>
    <g data-name="마스크 그룹 25" transform="translate(-703 -447)" style="clip-path:url(#mq1aqd91aa)">
        <g data-name="그룹 32">
            <path data-name="패스 68" d="M140.575 18.216v4.25c0 .155-.042.2-.2.194a311.323 311.323 0 0 0-3.616 0c-.166 0-.219-.039-.219-.212.007-2.811 0-5.619 0-8.43 0-.282.032-.247-.257-.25h-1.534c-.123 0-.159-.039-.159-.162v-2.681c0-.123.035-.162.159-.159.536.007 1.069 0 1.6.007.145 0 .19-.035.19-.187-.007-.751 0-1.506 0-2.257a3.461 3.461 0 0 1 .406-1.778 2.971 2.971 0 0 1 1.474-1.28 4.873 4.873 0 0 1 1.658-.363c1.132-.063 2.268-.011 3.4-.032.127 0 .159.042.159.162v2.787c0 .141-.053.162-.176.162h-1.958a.9.9 0 0 0-.935.928c0 .554.007 1.1 0 1.658 0 .159.049.2.2.2.892-.007 1.788 0 2.681-.007.148 0 .2.042.18.19-.053.455-.1.91-.148 1.365-.046.437-.123.871-.194 1.305-.021.123-.06.152-.173.152h-2.293c-.3 0-.257-.039-.257.265q.014 2.081.012 4.173z" style="fill:#4992ff" transform="translate(575.876 445.231)"/>
        </g>
    </g>
</svg>
