<svg xmlns="http://www.w3.org/2000/svg" width="16" height="16" viewBox="0 0 16 16">
    <defs>
        <clipPath id="6wl8ysa21a">
            <path data-name="사각형 232" transform="translate(1230 447)" style="fill:none;stroke:#707070" d="M0 0h16v16H0z"/>
        </clipPath>
    </defs>
    <g data-name="마스크 그룹 53" transform="translate(-1230 -447)" style="clip-path:url(#6wl8ysa21a)">
        <g data-name="그룹 116">
            <path data-name="패스 145" d="M6.667 1.2c1.78 0 1.991.007 2.694.039a3.69 3.69 0 0 1 1.238.23 2.066 2.066 0 0 1 .767.5 2.066 2.066 0 0 1 .5.767 3.69 3.69 0 0 1 .23 1.238c.032.7.039.914.039 2.694s-.007 1.991-.039 2.694a3.689 3.689 0 0 1-.23 1.238 2.208 2.208 0 0 1-1.266 1.264 3.688 3.688 0 0 1-1.238.23c-.7.032-.914.039-2.694.039s-1.991-.007-2.694-.039a3.688 3.688 0 0 1-1.238-.23 2.065 2.065 0 0 1-.767-.5 2.065 2.065 0 0 1-.5-.767 3.688 3.688 0 0 1-.23-1.238c-.032-.7-.039-.914-.039-2.694s.007-1.991.039-2.694a3.688 3.688 0 0 1 .23-1.238 2.065 2.065 0 0 1 .5-.767 2.066 2.066 0 0 1 .767-.5 3.689 3.689 0 0 1 1.238-.23c.7-.032.914-.039 2.694-.039m0-1.2C4.856 0 4.629.008 3.918.04A4.894 4.894 0 0 0 2.3.35a3.268 3.268 0 0 0-1.181.769A3.268 3.268 0 0 0 .35 2.3a4.893 4.893 0 0 0-.31 1.618C.008 4.629 0 4.856 0 6.667S.008 8.7.04 9.415a4.893 4.893 0 0 0 .31 1.618 3.268 3.268 0 0 0 .769 1.181 3.267 3.267 0 0 0 1.181.769 4.893 4.893 0 0 0 1.618.31c.711.032.938.04 2.749.04s2.038-.008 2.749-.04a4.893 4.893 0 0 0 1.618-.31 3.409 3.409 0 0 0 1.95-1.95 4.894 4.894 0 0 0 .31-1.618c.032-.711.04-.938.04-2.749s-.008-2.038-.04-2.749a4.894 4.894 0 0 0-.31-1.618 3.268 3.268 0 0 0-.769-1.181A3.268 3.268 0 0 0 11.034.35 4.894 4.894 0 0 0 9.415.04C8.7.008 8.477 0 6.667 0zm0 3.243a3.423 3.423 0 1 0 3.422 3.427 3.423 3.423 0 0 0-3.423-3.424zm0 5.646a2.222 2.222 0 1 1 2.221-2.219 2.222 2.222 0 0 1-2.222 2.222zm4.359-5.781a.8.8 0 1 1-.8-.8.8.8 0 0 1 .798.803z" style="fill:#4893ff" transform="translate(1231.333 448.333)"/>
        </g>
    </g>
</svg>
