<svg xmlns="http://www.w3.org/2000/svg" width="24" height="24" viewBox="0 0 24 24">
    <defs>
        <clipPath id="l6pk4oneta">
            <path data-name="사각형 68" transform="translate(842 447)" style="fill:none;stroke:#707070" d="M0 0h24v24H0z"/>
        </clipPath>
    </defs>
    <g data-name="마스크 그룹 23" transform="translate(-842 -447)" style="clip-path:url(#l6pk4oneta)">
        <g data-name="그룹 31">
            <g data-name="그룹 29">
                <path data-name="패스 65" d="M463.426 828.189a4.215 4.215 0 0 1-2.982-7.2l3.105-3.1a4.214 4.214 0 0 1 5.963 0 .891.891 0 1 1-1.26 1.259 2.493 2.493 0 0 0-3.443 0l-3.1 3.106a2.435 2.435 0 0 0 3.443 3.443l3.105-3.1a.891.891 0 1 1 1.26 1.259l-3.1 3.106a4.2 4.2 0 0 1-2.991 1.227z" style="fill:#4992ff" transform="translate(385.941 -360.34)"/>
            </g>
            <g data-name="그룹 30">
                <path data-name="패스 66" d="M469.59 822.025a4.205 4.205 0 0 1-2.982-1.234.891.891 0 0 1 1.26-1.259 2.439 2.439 0 0 0 3.444 0l3.1-3.1a2.435 2.435 0 0 0-3.444-3.444l-3.1 3.105a.891.891 0 0 1-1.26-1.26l3.105-3.1a4.217 4.217 0 0 1 5.964 5.963l-3.106 3.105a4.209 4.209 0 0 1-2.981 1.224z" style="fill:#4992ff" transform="translate(385.941 -360.34)"/>
            </g>
        </g>
    </g>
</svg>
