<svg xmlns="http://www.w3.org/2000/svg" width="24" height="24" viewBox="0 0 24 24">
    <defs>
        <clipPath id="vl9xgbxo5a">
            <path data-name="사각형 69" transform="translate(703 447)" style="fill:none;stroke:#707070" d="M0 0h24v24H0z"/>
        </clipPath>
    </defs>
    <g data-name="마스크 그룹 24" transform="translate(-703 -447)" style="clip-path:url(#vl9xgbxo5a)">
        <path data-name="패스 67" d="M500.825 809.05q-.329-.03-.664-.03c-.215 0-.429.01-.639.028-4.716.412-7.386 5.668-5.281 9.908l3.9 7.845a2.26 2.26 0 0 0 4.048 0l3.892-7.836c2.097-4.232-.551-9.488-5.256-9.915zm-.037 10.242a3.964 3.964 0 1 1 3.288-3.292 3.968 3.968 0 0 1-3.288 3.292z" transform="translate(214.84 -359.538)" style="fill:#4992ff"/>
    </g>
</svg>
