<svg xmlns="http://www.w3.org/2000/svg" xmlns:xlink="http://www.w3.org/1999/xlink" viewBox="0 0 115.38 93.42"><defs><style>.cls-1{fill:url(#linear-gradient);}.cls-2{fill:url(#linear-gradient-2);}.cls-3{fill:url(#linear-gradient-3);}.cls-4{fill:url(#linear-gradient-4);}.cls-5{fill:url(#linear-gradient-5);}.cls-6{fill:url(#linear-gradient-6);}.cls-7{fill:url(#linear-gradient-7);}.cls-8{fill:url(#linear-gradient-8);}.cls-9{fill:url(#linear-gradient-9);}.cls-10{fill:url(#linear-gradient-10);}.cls-11{fill:url(#linear-gradient-11);}.cls-12{fill:url(#linear-gradient-12);}</style><linearGradient id="linear-gradient" x1="121.31" y1="157.01" x2="150.01" y2="157.01" gradientTransform="matrix(1, 0.04, 0.04, -1, -70.77, 207.5)" gradientUnits="userSpaceOnUse"><stop offset="0.24" stop-color="#3364ff"/><stop offset="0.35" stop-color="#2d76ff"/><stop offset="0.59" stop-color="#1ea6fe"/><stop offset="0.77" stop-color="#2495fe"/><stop offset="1" stop-color="#2d78ff"/></linearGradient><linearGradient id="linear-gradient-2" x1="77.26" y1="177.09" x2="107.63" y2="173.69" gradientTransform="matrix(1, 0.04, 0.04, -1, -70.77, 207.5)" gradientUnits="userSpaceOnUse"><stop offset="0.13" stop-color="#a2fecd"/><stop offset="0.15" stop-color="#84ead8"/><stop offset="0.19" stop-color="#60d2e6"/><stop offset="0.22" stop-color="#43bff0"/><stop offset="0.25" stop-color="#2eb1f8"/><stop offset="0.28" stop-color="#22a9fc"/><stop offset="0.31" stop-color="#1ea6fe"/><stop offset="0.35" stop-color="#1fa4fe"/><stop offset="0.54" stop-color="#219bfe"/><stop offset="0.61" stop-color="#1fa1fe"/><stop offset="0.73" stop-color="#1ea6fe"/></linearGradient><linearGradient id="linear-gradient-3" x1="66.75" y1="178.77" x2="106.71" y2="190.99" gradientTransform="matrix(1, 0.04, 0.04, -1, -70.77, 207.5)" gradientUnits="userSpaceOnUse"><stop offset="0" stop-color="#1ea6fe"/><stop offset="0.18" stop-color="#2983ff"/><stop offset="0.34" stop-color="#306cff"/><stop offset="0.44" stop-color="#3364ff"/><stop offset="0.52" stop-color="#2f72ff"/><stop offset="0.77" stop-color="#2398fe"/><stop offset="0.9" stop-color="#1ea6fe"/></linearGradient><linearGradient id="linear-gradient-4" x1="66.39" y1="171.94" x2="115.42" y2="171.94" gradientTransform="matrix(1, 0.04, 0.04, -1, -70.77, 207.5)" gradientUnits="userSpaceOnUse"><stop offset="0.06" stop-color="#a2fecd"/><stop offset="0.35" stop-color="#45c0ef"/><stop offset="0.49" stop-color="#1ea6fe"/><stop offset="0.8" stop-color="#3364ff"/></linearGradient><linearGradient id="linear-gradient-5" x1="98.84" y1="177.92" x2="117.14" y2="177.92" gradientTransform="matrix(1, 0.04, 0.04, -1, -70.77, 207.5)" gradientUnits="userSpaceOnUse"><stop offset="0" stop-color="#a2fecd"/><stop offset="0.1" stop-color="#8cefd5"/><stop offset="0.48" stop-color="#3dbbf2"/><stop offset="0.66" stop-color="#1ea6fe"/></linearGradient><linearGradient id="linear-gradient-6" x1="114.48" y1="174.53" x2="157.36" y2="156.99" gradientTransform="matrix(1, 0.04, 0.04, -1, -70.77, 207.5)" gradientUnits="userSpaceOnUse"><stop offset="0.03" stop-color="#a2fecd"/><stop offset="0.27" stop-color="#48c2ef"/><stop offset="0.39" stop-color="#1ea6fe"/></linearGradient><linearGradient id="linear-gradient-7" x1="157.29" y1="194.86" x2="101.21" y2="147.9" gradientTransform="matrix(1, 0.04, 0.04, -1, -70.77, 207.5)" gradientUnits="userSpaceOnUse"><stop offset="0.28" stop-color="#1ea6fe"/><stop offset="0.52" stop-color="#2a81ff"/><stop offset="0.73" stop-color="#3364ff"/><stop offset="0.84" stop-color="#278afe"/><stop offset="0.93" stop-color="#1ea6fe"/></linearGradient><linearGradient id="linear-gradient-8" x1="106.67" y1="171.58" x2="160.53" y2="153.34" gradientTransform="matrix(1, 0.04, 0.04, -1, -70.77, 207.5)" gradientUnits="userSpaceOnUse"><stop offset="0.16" stop-color="#a2fecd"/><stop offset="0.37" stop-color="#48c2ef"/><stop offset="0.48" stop-color="#1ea6fe"/><stop offset="0.74" stop-color="#2983ff"/><stop offset="1" stop-color="#3364ff"/></linearGradient><linearGradient id="linear-gradient-9" x1="153.56" y1="166.79" x2="162.23" y2="152.62" gradientTransform="matrix(1, 0.04, 0.04, -1, -70.77, 207.5)" gradientUnits="userSpaceOnUse"><stop offset="0.16" stop-color="#2395fe"/><stop offset="0.51" stop-color="#20a0fe"/><stop offset="0.64" stop-color="#1ea6fe"/></linearGradient><linearGradient id="linear-gradient-10" x1="148.58" y1="159.25" x2="171.22" y2="159.25" gradientTransform="matrix(1, 0.04, 0.04, -1, -70.77, 207.5)" gradientUnits="userSpaceOnUse"><stop offset="0" stop-color="#a2fecd"/><stop offset="0" stop-color="#8de1d6"/><stop offset="0" stop-color="#5d9eec"/><stop offset="0" stop-color="#3f74fa"/><stop offset="0" stop-color="#3364ff"/><stop offset="0.74" stop-color="#1ea6fe"/></linearGradient><linearGradient id="linear-gradient-11" x1="134.48" y1="156.92" x2="184.18" y2="156.92" gradientTransform="matrix(1, 0.04, 0.04, -1, -70.77, 207.5)" gradientUnits="userSpaceOnUse"><stop offset="0" stop-color="#a2fecd"/><stop offset="0.02" stop-color="#9bfacf"/><stop offset="0.22" stop-color="#58cde8"/><stop offset="0.37" stop-color="#2eb1f8"/><stop offset="0.44" stop-color="#1ea6fe"/><stop offset="0.74" stop-color="#2885fe"/><stop offset="1" stop-color="#3364ff"/></linearGradient><linearGradient id="linear-gradient-12" x1="93.56" y1="156.9" x2="132.85" y2="156.9" gradientTransform="matrix(1, 0.04, 0.04, -1, -70.77, 207.5)" gradientUnits="userSpaceOnUse"><stop offset="0" stop-color="#a2fecd"/><stop offset="0.06" stop-color="#8cefd5"/><stop offset="0.29" stop-color="#3dbbf2"/><stop offset="0.39" stop-color="#1ea6fe"/><stop offset="0.76" stop-color="#3364ff"/></linearGradient></defs><g id="Layer_2" data-name="Layer 2"><g id="레이어_1" data-name="레이어 1"><path class="cls-1" d="M85.75,49.58a59.79,59.79,0,0,1-7,4.26l.89-.46a19.87,19.87,0,0,1-4.94,1.84l1-.22a43.44,43.44,0,0,1-6,.64l-6.11.4-3.46.23a2.88,2.88,0,0,0-1.46.45,2.94,2.94,0,0,0-1.18.89,4.24,4.24,0,0,0-.91,2.81,3.88,3.88,0,0,0,1.34,2.63,4,4,0,0,0,2.81.91h0c4-.26,7.93-.5,11.89-.79A26.61,26.61,0,0,0,79.12,62a32.78,32.78,0,0,0,6-2.71Z"/><path class="cls-2" d="M2.67,37.23a24.79,24.79,0,0,0,4.49,1.12,22.8,22.8,0,0,0,3.69.33,35.5,35.5,0,0,0,8.34-.94,41.65,41.65,0,0,0,7.37-2.45,33.37,33.37,0,0,0,6.62-3.9,26.34,26.34,0,0,0,9-11.91A19.32,19.32,0,0,0,43,16.31a17.18,17.18,0,0,0,.43-4,10.61,10.61,0,0,0-1.1-4.63,7.66,7.66,0,0,0-6.57-4.06,11.76,11.76,0,0,0-1.68.12,5.32,5.32,0,0,0-.78.14A10.3,10.3,0,0,0,29,6.17a17.72,17.72,0,0,0-2.68,3.26c-.63,1-1.18,2-1.72,3.07a81.87,81.87,0,0,0-9.1,29.85Q15.06,46,15,49.73A34.56,34.56,0,0,0,15.71,58a18,18,0,0,0,3.63,7.46,14,14,0,0,0,2.92,2.62,15.49,15.49,0,0,0,2.13,1.13,8.45,8.45,0,0,0,1.41.51,13.85,13.85,0,0,0,2.55.42,14.39,14.39,0,0,0,6.78-1.43,18.78,18.78,0,0,0,3.7-2.34,25,25,0,0,0,2.63-2.4c.81-.83,1.57-1.7,2.34-2.57a2.79,2.79,0,0,0,.85-1.21,2.9,2.9,0,0,0,.4-1.47,4,4,0,0,0-1-2.78,3.87,3.87,0,0,0-2.68-1.25,3.74,3.74,0,0,0-2.78,1A33.82,33.82,0,0,1,33,61.13l.81-.57a14,14,0,0,1-3.06,1.63l.94-.35a10.58,10.58,0,0,1-2.67.62l1-.09a8.66,8.66,0,0,1-2.33-.1l1,.18a8.33,8.33,0,0,1-2-.64l.9.43a10.16,10.16,0,0,1-2-1.3l.75.64a11.78,11.78,0,0,1-1.93-2.12l.57.81a12.94,12.94,0,0,1-1.54-3c.12.31.23.63.35.94a19.72,19.72,0,0,1-1.07-5.1l.09,1a49,49,0,0,1,0-6.64q.15-3.3.59-6.57c.16-1.24.36-2.47.58-3.7l-.18,1A79.8,79.8,0,0,1,28.3,22.7c.58-1.44,1.21-2.85,1.87-4.25l-.43.9c.64-1.34,1.31-2.65,2-4A21,21,0,0,1,34,12l-.64.75a8.45,8.45,0,0,1,1.52-1.41l-.81.57a6.26,6.26,0,0,1,1.33-.7l-.94.35a6.06,6.06,0,0,1,1.46-.33l-1,.09a4.93,4.93,0,0,1,1.21,0l-1-.18a4.41,4.41,0,0,1,1.05.33l-.9-.43a3.83,3.83,0,0,1,.72.46l-.75-.64a3.77,3.77,0,0,1,.66.72l-.57-.81a4.39,4.39,0,0,1,.52,1c-.12-.31-.23-.63-.35-.94a7.23,7.23,0,0,1,.37,1.72l-.09-1A13.6,13.6,0,0,1,35.48,15l.18-1a19.57,19.57,0,0,1-1.57,4.82l.43-.9a22.25,22.25,0,0,1-3.14,4.83l.64-.75a25,25,0,0,1-4.61,4.17l.81-.57a31.41,31.41,0,0,1-7.07,3.66l.94-.35A36.43,36.43,0,0,1,12.94,31l1-.09a24.93,24.93,0,0,1-6.57-.24l1,.18a19.77,19.77,0,0,1-3.37-.92,3.94,3.94,0,0,0-3,.26A4,4,0,0,0,.18,32.37a3.89,3.89,0,0,0,.26,3,4.24,4.24,0,0,0,2.23,1.87Z"/><path class="cls-3" d="M35.66,13.93a19.57,19.57,0,0,1-1.57,4.82l.43-.9a22.25,22.25,0,0,1-3.14,4.83l.64-.75a25,25,0,0,1-4.61,4.17l.81-.57a31.41,31.41,0,0,1-7.07,3.66l.94-.35A36.43,36.43,0,0,1,12.94,31l1-.09a24.93,24.93,0,0,1-6.57-.24l1,.18a19.77,19.77,0,0,1-3.37-.92,3.94,3.94,0,0,0-3,.26A4,4,0,0,0,.18,32.37a3.89,3.89,0,0,0,.26,3,4.22,4.22,0,0,0,2.23,1.88h0a24.79,24.79,0,0,0,4.49,1.12,22.8,22.8,0,0,0,3.69.33,35.5,35.5,0,0,0,8.34-.94,41.65,41.65,0,0,0,7.37-2.45,33.37,33.37,0,0,0,6.62-3.9,26.34,26.34,0,0,0,9-11.91A19.32,19.32,0,0,0,43,16.32a17.18,17.18,0,0,0,.43-4"/><path class="cls-4" d="M26.29,9.44c-.63,1-1.18,2-1.72,3.07a81.87,81.87,0,0,0-9.1,29.85Q15.06,46,15,49.74A34.56,34.56,0,0,0,15.71,58a18,18,0,0,0,3.63,7.46,14,14,0,0,0,2.92,2.62,15.49,15.49,0,0,0,2.13,1.13,8.45,8.45,0,0,0,1.41.51,13.85,13.85,0,0,0,2.55.42,14.39,14.39,0,0,0,6.78-1.43,18.78,18.78,0,0,0,3.7-2.34A25,25,0,0,0,41.46,64c.81-.83,1.57-1.7,2.34-2.57a2.79,2.79,0,0,0,.85-1.21,2.9,2.9,0,0,0,.4-1.47,4,4,0,0,0-1-2.78,3.87,3.87,0,0,0-2.68-1.25,3.74,3.74,0,0,0-2.78,1A33.82,33.82,0,0,1,33,61.14l.81-.57A14,14,0,0,1,30.7,62.2l.94-.35a10.58,10.58,0,0,1-2.67.62l1-.09a8.66,8.66,0,0,1-2.33-.1l1,.18a8.33,8.33,0,0,1-2-.64l.9.43a10.16,10.16,0,0,1-2-1.3l.75.64a11.78,11.78,0,0,1-1.93-2.12l.57.81a12.94,12.94,0,0,1-1.54-3c.12.31.23.63.35.94a19.72,19.72,0,0,1-1.07-5.1l.09,1a49,49,0,0,1,0-6.64q.15-3.3.59-6.57c.16-1.24.36-2.47.58-3.7l-.18,1a79.8,79.8,0,0,1,4.51-15.6c.58-1.44,1.21-2.85,1.87-4.25l-.43.9c.64-1.34,1.31-2.65,2-3.95Z"/><path class="cls-5" d="M44.9,38.45l.42,0a2.85,2.85,0,0,0,1.5-.27,2.86,2.86,0,0,0,1.28-.74A2.79,2.79,0,0,0,49,36.25a2.9,2.9,0,0,0,.4-1.47l-.09-1A3.85,3.85,0,0,0,48.34,32l-.75-.64a3.79,3.79,0,0,0-1.92-.61l-.42,0a2.85,2.85,0,0,0-1.5.27,2.86,2.86,0,0,0-1.28.74A2.79,2.79,0,0,0,41.62,33a2.9,2.9,0,0,0-.4,1.47l.09,1a3.85,3.85,0,0,0,.92,1.75l.75.64a3.73,3.73,0,0,0,1.92.61Z"/><path class="cls-6" d="M54.65,66.86a118.2,118.2,0,0,0,13.8-10.38A98.12,98.12,0,0,0,80.33,44a78.62,78.62,0,0,0,8.91-13.88,72.79,72.79,0,0,0,6-16.24A19.92,19.92,0,0,0,96,8.67a10,10,0,0,0-.43-2.88,10,10,0,0,0-1.62-3A6.92,6.92,0,0,0,92,1.09,7.63,7.63,0,0,0,88.78,0a7.44,7.44,0,0,0-1.7.09A3.42,3.42,0,0,0,86.3.3a9,9,0,0,0-2.94,1.63,12.16,12.16,0,0,0-2.62,3.3C80,6.45,79.39,7.72,78.73,9q-2.08,4-4,8Q70.61,25.38,67,34c-2.33,5.48-4.54,11-6.67,16.58s-4.17,11.17-6.17,16.79-4,11.26-5.89,16.9c-.47,1.38-.95,2.75-1.42,4.13a3.87,3.87,0,0,0,7.36,2.39c3.09-9,6.18-18,9.43-26.92S70.23,46.05,73.93,37.3Q77,30,80.45,22.74l-.43.9q2-4.28,4.19-8.48c.72-1.39,1.44-2.78,2.18-4.15a19.56,19.56,0,0,1,2.06-3.32l-.64.75A6.09,6.09,0,0,1,89,7.38L88.15,8A4.51,4.51,0,0,1,89,7.52L88,7.87a3.45,3.45,0,0,1,.9-.2l-1,.09a3.54,3.54,0,0,1,.73,0l-1-.18a3.83,3.83,0,0,1,.81.26l-.9-.43a4.15,4.15,0,0,1,.82.54l-.75-.64a4.66,4.66,0,0,1,.76.84l-.57-.81a5.21,5.21,0,0,1,.59,1.12c-.12-.31-.23-.63-.35-.94A6.05,6.05,0,0,1,88.32,9l-.09-1a11.49,11.49,0,0,1-.18,2.87l.18-1A63.75,63.75,0,0,1,83,25.56l.43-.9a77.86,77.86,0,0,1-8.33,13.62q-1.38,1.81-2.85,3.55l.64-.75A98.48,98.48,0,0,1,58.4,54.84c-1.47,1.15-3,2.26-4.51,3.34l.81-.57c-1.2.84-2.33,1.68-3.56,2.48-.86.56-2.56,1.75-3.68,2.63-.71.56.06,2.59.55,3.43s-.17,2,2,3c1,.42,3.91-1.6,4.69-2.33Z"/><path class="cls-7" d="M88.26,8.51a12.89,12.89,0,0,1-.21,2.31l.18-1A63.75,63.75,0,0,1,83,25.53l.43-.9a77.86,77.86,0,0,1-8.33,13.62q-1.38,1.81-2.85,3.55l.64-.75A98.48,98.48,0,0,1,58.4,54.81c-1.47,1.15-3,2.26-4.51,3.34l.81-.57c-1.2.84-2.33,1.68-3.56,2.48-.86.56-2.56,1.75-3.68,2.63-.71.56.06,2.59.55,3.43s-.17,2,2,3c1,.46,3.91-1.56,4.7-2.28h0A118.2,118.2,0,0,0,68.46,56.5,98.12,98.12,0,0,0,80.34,44a78.62,78.62,0,0,0,8.91-13.88,72.79,72.79,0,0,0,6-16.24A19.92,19.92,0,0,0,96,8.69Z"/><path class="cls-8" d="M80.74,5.23C80,6.45,79.39,7.72,78.73,9q-2.08,4-4,8Q70.61,25.38,67,34c-2.33,5.48-4.54,11-6.67,16.58s-4.17,11.17-6.17,16.79-4,11.26-5.89,16.9c-.47,1.38-.95,2.75-1.42,4.13a3.87,3.87,0,0,0,7.36,2.39c3.09-9,6.18-18,9.43-26.92S70.23,46.05,73.93,37.3Q77,30,80.45,22.74l-.43.9q2-4.28,4.19-8.48c.72-1.39,1.44-2.78,2.18-4.15Z"/><path class="cls-9" d="M86.59,57.71a19.67,19.67,0,0,0,2.89,1.39,13.84,13.84,0,0,0,2.2.63,19.34,19.34,0,0,0,3.21.43,20.66,20.66,0,0,0,3.24-.2,11.7,11.7,0,0,0,2.2-.5,13,13,0,0,0,2.72-1.16,17,17,0,0,0,1.58-1.09,8.21,8.21,0,0,0,.77-.67,12.79,12.79,0,0,0,1.22-1.43,9.69,9.69,0,0,0,.9-1.68,4.51,4.51,0,0,0,.31-.87,8.82,8.82,0,0,0,.29-1.91,8.21,8.21,0,0,0-.88-3.76,9.91,9.91,0,0,0-1.06-1.58,5,5,0,0,0-.71-.74,11.28,11.28,0,0,0-1.5-1.18,12.16,12.16,0,0,0-1.89-.91,8.35,8.35,0,0,0-1.11-.33,17.19,17.19,0,0,0-2.13-.35,17,17,0,0,0-3.19.1,17.47,17.47,0,0,0-4.85,1.28,17.26,17.26,0,0,0-4.26,2.55A13.05,13.05,0,0,0,85,47.11a18.7,18.7,0,0,0-1.86,2.3,17.24,17.24,0,0,0-1.42,2.73,12.21,12.21,0,0,0-.68,2,18.89,18.89,0,0,0-.5,3.07,19,19,0,0,0,.12,3.11,11.45,11.45,0,0,0,.4,2.1,16.34,16.34,0,0,0,1.1,2.87,17,17,0,0,0,1.58,2.44,11.83,11.83,0,0,0,1.29,1.45A16.21,16.21,0,0,0,89,72.05a17.94,17.94,0,0,0,4.57,1.68,18.41,18.41,0,0,0,4.91.43,20.8,20.8,0,0,0,5.13-.93,24.63,24.63,0,0,0,4.78-2.13A27.49,27.49,0,0,0,112.6,68c.53-.47,1-1,1.52-1.49a2.79,2.79,0,0,0,.85-1.21,2.9,2.9,0,0,0,.4-1.47,4.36,4.36,0,0,0-1-2.78,3.87,3.87,0,0,0-5.46-.24A24.2,24.2,0,0,1,105.24,64l.81-.57a20.42,20.42,0,0,1-4.59,2.44l.94-.35a17.39,17.39,0,0,1-4.39,1l1-.09a15.06,15.06,0,0,1-3.91-.18l1,.18a14.4,14.4,0,0,1-3.63-1.17l.9.43a13.77,13.77,0,0,1-2.9-1.86l.75.64a11.83,11.83,0,0,1-2-2.18l.57.81a10.93,10.93,0,0,1-1.3-2.46c.12.31.23.63.35.94a11.75,11.75,0,0,1-.68-3l.09,1a12.45,12.45,0,0,1,.16-3.34l-.18,1a12.65,12.65,0,0,1,1-3.12l-.43.9a12,12,0,0,1,1.66-2.56l-.64.75A13,13,0,0,1,92.33,51l-.81.57a14.27,14.27,0,0,1,3.19-1.67l-.94.35a14.27,14.27,0,0,1,3.59-.81l-1,.09a12.05,12.05,0,0,1,3,.1l-1-.18a7.38,7.38,0,0,1,1.9.6l-.9-.43a5.88,5.88,0,0,1,1.2.78l-.75-.64a5.34,5.34,0,0,1,.88,1l-.57-.81a5,5,0,0,1,.54,1c-.12-.31-.23-.63-.35-.94a4.19,4.19,0,0,1,.23,1l-.09-1a4,4,0,0,1,0,1l.18-1a4.62,4.62,0,0,1-.35,1.09l.43-.9a5.17,5.17,0,0,1-.71,1.08l.64-.75a7.16,7.16,0,0,1-1.36,1.22l.81-.57a9.06,9.06,0,0,1-2,1L99,51.8a12.31,12.31,0,0,1-3.17.69l1-.09a14.06,14.06,0,0,1-3.55-.16l1,.18a13.53,13.53,0,0,1-3.39-1.08l.9.43c-.35-.17-.69-.35-1-.55a4.08,4.08,0,0,0-3-.52,3,3,0,0,0-1.34.63,2.88,2.88,0,0,0-1,1,3.89,3.89,0,0,0-.52,3,3.78,3.78,0,0,0,1.64,2.39Z"/><path class="cls-10" d="M100,51.13a9.06,9.06,0,0,1-2,1L99,51.8a12.31,12.31,0,0,1-3.17.69l1-.09a14.06,14.06,0,0,1-3.55-.16l1,.18a13.53,13.53,0,0,1-3.39-1.08l.9.43c-.35-.17-.69-.35-1-.55a4.08,4.08,0,0,0-3-.52,3,3,0,0,0-1.34.63,2.88,2.88,0,0,0-1,1A3.85,3.85,0,0,0,86.6,57.7h0a19.67,19.67,0,0,0,2.89,1.39,13.84,13.84,0,0,0,2.2.63,19.34,19.34,0,0,0,3.21.43,20.66,20.66,0,0,0,3.24-.2,11.7,11.7,0,0,0,2.2-.5,13,13,0,0,0,2.72-1.16,17,17,0,0,0,1.58-1.09,8.21,8.21,0,0,0,.77-.67,12.79,12.79,0,0,0,1.22-1.43,9.69,9.69,0,0,0,.9-1.68Z"/><path class="cls-11" d="M102.07,42.48a8.35,8.35,0,0,0-1.11-.33,17.19,17.19,0,0,0-2.13-.35,17,17,0,0,0-3.19.1,17.47,17.47,0,0,0-4.85,1.28,17.26,17.26,0,0,0-4.26,2.55A13.05,13.05,0,0,0,85,47.11a18.7,18.7,0,0,0-1.86,2.3,17.24,17.24,0,0,0-1.42,2.73,12.21,12.21,0,0,0-.68,2,18.89,18.89,0,0,0-.5,3.07,19,19,0,0,0,.12,3.11,11.45,11.45,0,0,0,.4,2.1,16.34,16.34,0,0,0,1.1,2.87,17,17,0,0,0,1.58,2.44,11.83,11.83,0,0,0,1.29,1.45A16.21,16.21,0,0,0,89,72.05a17.94,17.94,0,0,0,4.57,1.68,18.41,18.41,0,0,0,4.91.43,20.8,20.8,0,0,0,5.13-.93,24.63,24.63,0,0,0,4.78-2.13A27.49,27.49,0,0,0,112.59,68c.53-.47,1-1,1.52-1.49a2.79,2.79,0,0,0,.85-1.21,2.9,2.9,0,0,0,.4-1.47,4.36,4.36,0,0,0-1-2.78,3.87,3.87,0,0,0-5.46-.24A24.2,24.2,0,0,1,105.23,64l.81-.57a20.42,20.42,0,0,1-4.59,2.44l.94-.35a17.39,17.39,0,0,1-4.39,1l1-.09a15.06,15.06,0,0,1-3.91-.18l1,.18a14.4,14.4,0,0,1-3.63-1.17l.9.43a13.77,13.77,0,0,1-2.9-1.86l.75.64a11.83,11.83,0,0,1-2-2.18l.57.81a10.93,10.93,0,0,1-1.3-2.46c.12.31.23.63.35.94a11.75,11.75,0,0,1-.68-3l.09,1a12.45,12.45,0,0,1,.16-3.34l-.18,1a12.65,12.65,0,0,1,1-3.12l-.43.9a12,12,0,0,1,1.66-2.56l-.64.75A13,13,0,0,1,92.32,51l-.81.57a14.27,14.27,0,0,1,3.19-1.67l-.94.35a14.27,14.27,0,0,1,3.59-.81l-1,.09a12.05,12.05,0,0,1,3,.1Z"/><path class="cls-12" d="M40.19,45.05q-.84,6.31-1.07,12.68c0,1-.08,1.92-.06,2.88,0,.73.08,1.46.16,2.19A7.69,7.69,0,0,0,39.45,64c.14.48.33,1,.51,1.42a4.45,4.45,0,0,0,.25.54,11.14,11.14,0,0,0,.84,1.23,3.47,3.47,0,0,0,.4.46,7,7,0,0,0,1.6,1.25,8.5,8.5,0,0,0,1.87.78,9.34,9.34,0,0,0,2.23.29,11.69,11.69,0,0,0,2.21-.25A12.44,12.44,0,0,0,51.51,69a7.37,7.37,0,0,0,1.17-.64,3,3,0,0,0,1.13-.94,2.86,2.86,0,0,0,.75-1.28,3,3,0,0,0,.14-1.53,2.87,2.87,0,0,0-.39-1.45,3.88,3.88,0,0,0-2.23-1.88l-1-.18a3.85,3.85,0,0,0-2,.44,7.47,7.47,0,0,1-1.54.79l.94-.35a7,7,0,0,1-1.69.39l1-.09a5.1,5.1,0,0,1-1.35,0l1,.18A4.45,4.45,0,0,1,46.43,62l.9.43a3.61,3.61,0,0,1-.74-.48l.75.64a3.45,3.45,0,0,1-.63-.69l.57.81a4.2,4.2,0,0,1-.52-1c.12.31.23.63.35.94a7.48,7.48,0,0,1-.38-1.81l.09,1a23.78,23.78,0,0,1,0-2.8c0-1.11.07-2.21.13-3.32q.18-3.32.52-6.62.19-1.87.45-3.75a2.85,2.85,0,0,0-.27-1.5,2.86,2.86,0,0,0-.74-1.28,2.79,2.79,0,0,0-1.21-.85,2.9,2.9,0,0,0-1.47-.4,3.89,3.89,0,0,0-2.78,1l-.64.75a4.09,4.09,0,0,0-.6,1.93Z"/></g></g></svg>