<?xml version="1.0" encoding="utf-8"?>
<!-- Generator: Adobe Illustrator 24.3.0, SVG Export Plug-In . SVG Version: 6.00 Build 0)  -->
<svg version="1.1" id="레이어_1" xmlns="http://www.w3.org/2000/svg" xmlns:xlink="http://www.w3.org/1999/xlink" x="0px"
	 y="0px" viewBox="0 0 250 100" style="enable-background:new 0 0 250 100;" xml:space="preserve">
<style type="text/css">
	.st0{fill:url(#SVGID_1_);}
	.st1{fill:url(#SVGID_2_);}
	.st2{fill:url(#SVGID_3_);}
	.st3{fill:#3364FF;}
	.st4{fill:url(#SVGID_4_);}
	.st5{fill:url(#SVGID_5_);}
	.st6{fill:url(#SVGID_6_);}
	.st7{fill:url(#SVGID_7_);}
	.st8{fill:url(#SVGID_8_);}
	.st9{fill:url(#SVGID_9_);}
	.st10{fill:url(#SVGID_10_);}
	.st11{fill:url(#SVGID_11_);}
	.st12{fill:url(#SVGID_12_);}
	.st13{fill:url(#SVGID_13_);}
	.st14{fill:url(#SVGID_14_);}
	.st15{fill:url(#SVGID_15_);}
	.st16{fill:url(#SVGID_16_);}
	.st17{fill:#2B63EF;}
</style>
<g>
	
		<linearGradient id="SVGID_1_" gradientUnits="userSpaceOnUse" x1="178.2551" y1="58.8549" x2="206.9449" y2="58.8549" gradientTransform="matrix(0.999 0.0448 -0.0448 0.999 2.6427 -7.368)">
		<stop  offset="0.2366" style="stop-color:#3364FF"/>
		<stop  offset="0.355" style="stop-color:#2D76FF"/>
		<stop  offset="0.5926" style="stop-color:#1EA6FE"/>
		<stop  offset="0.7669" style="stop-color:#2495FE"/>
		<stop  offset="1" style="stop-color:#2D78FF"/>
	</linearGradient>
	<path class="st0" d="M206.38,52.92c-2.1,1.51-4.68,3.06-6.99,4.26c0.3-0.15,0.59-0.31,0.89-0.46c-1.57,0.81-3.21,1.47-4.94,1.84
		c0.34-0.07,0.67-0.15,1.01-0.22c-1.98,0.42-4.01,0.5-6.02,0.64c-2.04,0.13-4.07,0.27-6.11,0.4c-1.15,0.08-2.31,0.15-3.46,0.23
		c-0.53,0.02-1.02,0.17-1.46,0.45c-0.46,0.19-0.86,0.49-1.18,0.89c-0.35,0.38-0.58,0.81-0.7,1.3c-0.2,0.48-0.28,0.98-0.21,1.51
		c0.12,0.99,0.53,2,1.34,2.63c0.81,0.64,1.76,0.98,2.81,0.91l0,0c3.96-0.26,7.93-0.5,11.89-0.79c2.2-0.16,4.4-0.49,6.5-1.19
		c1.96-0.65,4.28-1.66,6.04-2.71L206.38,52.92z"/>
</g>
<g>
	
		<linearGradient id="SVGID_2_" gradientUnits="userSpaceOnUse" x1="134.2073" y1="38.7807" x2="164.5806" y2="42.1809" gradientTransform="matrix(0.999 0.0448 -0.0448 0.999 2.6427 -7.368)">
		<stop  offset="0.133" style="stop-color:#A2FECD"/>
		<stop  offset="0.1548" style="stop-color:#84EAD8"/>
		<stop  offset="0.1863" style="stop-color:#60D2E6"/>
		<stop  offset="0.218" style="stop-color:#43BFF0"/>
		<stop  offset="0.2494" style="stop-color:#2EB1F8"/>
		<stop  offset="0.2805" style="stop-color:#22A9FC"/>
		<stop  offset="0.3109" style="stop-color:#1EA6FE"/>
		<stop  offset="0.349" style="stop-color:#1FA4FE"/>
		<stop  offset="0.5383" style="stop-color:#219BFE"/>
		<stop  offset="0.6092" style="stop-color:#1FA1FE"/>
		<stop  offset="0.7258" style="stop-color:#1EA6FE"/>
	</linearGradient>
	<path class="st1" d="M123.3,40.57c1.46,0.54,2.96,0.86,4.49,1.12c1.22,0.21,2.45,0.32,3.69,0.33c2.79,0.03,5.62-0.31,8.34-0.94
		c2.52-0.58,5-1.41,7.37-2.45c2.37-1.03,4.55-2.36,6.62-3.9c4.04-2.99,7.21-7.19,8.96-11.91c0.38-1.03,0.67-2.09,0.87-3.17
		c0.25-1.33,0.5-2.68,0.43-4.04c-0.08-1.62-0.32-3.18-1.1-4.63c-0.92-1.69-2.38-2.93-4.17-3.61c-0.75-0.28-1.6-0.42-2.4-0.45
		c-0.56-0.02-1.13,0.06-1.68,0.12c-0.26,0.03-0.52,0.07-0.78,0.14c-1.63,0.41-3.09,1.22-4.34,2.33c-0.63,0.57-1.18,1.23-1.71,1.89
		c-0.35,0.44-0.67,0.9-0.97,1.37c-0.63,0.99-1.18,2.03-1.72,3.07c-2.42,4.63-4.46,9.47-5.98,14.47c-1.52,5.01-2.56,10.18-3.12,15.38
		c-0.27,2.45-0.42,4.91-0.45,7.38c-0.04,2.74,0.07,5.55,0.69,8.24c0.64,2.74,1.83,5.29,3.63,7.46c0.83,1,1.84,1.89,2.92,2.62
		c0.67,0.45,1.4,0.79,2.13,1.13c0.45,0.21,0.92,0.38,1.41,0.51c0.83,0.21,1.7,0.37,2.55,0.42c0.88,0.05,1.77-0.04,2.64-0.15
		c1.43-0.18,2.84-0.69,4.14-1.28c1.33-0.6,2.55-1.45,3.7-2.34c0.94-0.73,1.81-1.55,2.63-2.4c0.81-0.83,1.57-1.7,2.34-2.57
		c0.39-0.33,0.68-0.73,0.85-1.21c0.26-0.45,0.4-0.94,0.4-1.47c0.04-0.95-0.33-2.09-1.01-2.78c-0.7-0.71-1.65-1.25-2.68-1.25
		c-0.96,0-2.11,0.25-2.78,1.01c-1.73,1.96-3.48,3.94-5.63,5.46c0.27-0.19,0.54-0.38,0.81-0.57c-0.95,0.66-1.97,1.22-3.06,1.63
		c0.31-0.12,0.63-0.23,0.94-0.35c-0.86,0.32-1.75,0.53-2.67,0.62c0.34-0.03,0.69-0.06,1.03-0.09c-0.78,0.07-1.56,0.04-2.33-0.1
		c0.34,0.06,0.68,0.12,1.02,0.18c-0.68-0.13-1.34-0.35-1.96-0.64c0.3,0.14,0.6,0.29,0.9,0.43c-0.72-0.35-1.39-0.79-2.01-1.3
		c0.25,0.21,0.5,0.43,0.75,0.64c-0.73-0.62-1.37-1.34-1.93-2.12c0.19,0.27,0.38,0.54,0.57,0.81c-0.64-0.91-1.15-1.9-1.54-2.95
		c0.12,0.31,0.23,0.63,0.35,0.94c-0.6-1.64-0.92-3.36-1.07-5.1c0.03,0.34,0.06,0.69,0.09,1.03c-0.19-2.2-0.15-4.43-0.04-6.64
		c0.1-2.2,0.3-4.39,0.59-6.57c0.16-1.24,0.36-2.47,0.58-3.7c-0.06,0.34-0.12,0.68-0.18,1.02c0.97-5.34,2.48-10.57,4.51-15.6
		c0.58-1.44,1.21-2.85,1.87-4.25c-0.14,0.3-0.29,0.6-0.43,0.9c0.64-1.34,1.31-2.65,2.02-3.95c0.65-1.18,1.33-2.36,2.2-3.4
		c-0.21,0.25-0.43,0.5-0.64,0.75c0.45-0.53,0.96-1.01,1.52-1.41c-0.27,0.19-0.54,0.38-0.81,0.57c0.42-0.29,0.86-0.52,1.33-0.7
		c-0.31,0.12-0.63,0.23-0.94,0.35c0.47-0.17,0.96-0.28,1.46-0.33c-0.34,0.03-0.69,0.06-1.03,0.09c0.4-0.03,0.8-0.02,1.21,0.05
		c-0.34-0.06-0.68-0.12-1.02-0.18c0.36,0.07,0.71,0.17,1.05,0.33c-0.3-0.14-0.6-0.29-0.9-0.43c0.26,0.13,0.5,0.28,0.72,0.46
		c-0.25-0.21-0.5-0.43-0.75-0.64c0.25,0.21,0.47,0.45,0.66,0.72c-0.19-0.27-0.38-0.54-0.57-0.81c0.22,0.32,0.39,0.65,0.52,1.01
		c-0.12-0.31-0.23-0.63-0.35-0.94c0.2,0.56,0.31,1.13,0.37,1.72c-0.03-0.34-0.06-0.69-0.09-1.03c0.09,1.13-0.03,2.26-0.22,3.37
		c0.06-0.34,0.12-0.68,0.18-1.02c-0.31,1.67-0.84,3.28-1.57,4.82c0.14-0.3,0.29-0.6,0.43-0.9c-0.83,1.74-1.89,3.36-3.14,4.83
		c0.21-0.25,0.43-0.5,0.64-0.75c-1.35,1.58-2.91,2.97-4.61,4.17c0.27-0.19,0.54-0.38,0.81-0.57c-2.18,1.53-4.58,2.73-7.07,3.66
		c0.31-0.12,0.63-0.23,0.94-0.35c-2.94,1.08-6.03,1.82-9.15,2.11c0.34-0.03,0.69-0.06,1.03-0.09c-2.19,0.19-4.4,0.15-6.57-0.24
		c0.34,0.06,0.68,0.12,1.02,0.18c-1.15-0.21-2.27-0.51-3.37-0.92c-0.91-0.34-2.14-0.19-2.99,0.26c-0.82,0.43-1.63,1.32-1.88,2.23
		c-0.27,0.98-0.27,2.09,0.26,2.99C121.59,39.58,122.32,40.2,123.3,40.57L123.3,40.57z"/>
</g>
<linearGradient id="SVGID_3_" gradientUnits="userSpaceOnUse" x1="123.6902" y1="37.0912" x2="163.653" y2="24.868" gradientTransform="matrix(0.999 0.0448 -0.0448 0.999 2.6427 -7.368)">
	<stop  offset="0" style="stop-color:#1EA6FE"/>
	<stop  offset="0.1831" style="stop-color:#2983FF"/>
	<stop  offset="0.3385" style="stop-color:#306CFF"/>
	<stop  offset="0.4369" style="stop-color:#3364FF"/>
	<stop  offset="0.5191" style="stop-color:#2F72FF"/>
	<stop  offset="0.7655" style="stop-color:#2398FE"/>
	<stop  offset="0.8955" style="stop-color:#1EA6FE"/>
</linearGradient>
<path class="st2" d="M156.29,17.27c-0.31,1.67-0.84,3.28-1.57,4.82c0.14-0.3,0.29-0.6,0.43-0.9c-0.83,1.74-1.89,3.36-3.14,4.83
	c0.21-0.25,0.43-0.5,0.64-0.75c-1.35,1.58-2.91,2.97-4.61,4.17c0.27-0.19,0.54-0.38,0.81-0.57c-2.18,1.53-4.58,2.73-7.07,3.66
	c0.31-0.12,0.63-0.23,0.94-0.35c-2.94,1.08-6.03,1.82-9.15,2.11c0.34-0.03,0.69-0.06,1.03-0.09c-2.19,0.19-4.4,0.15-6.57-0.24
	c0.34,0.06,0.68,0.12,1.02,0.18c-1.15-0.21-2.27-0.51-3.37-0.92c-0.91-0.34-2.14-0.19-2.99,0.26c-0.82,0.43-1.63,1.32-1.88,2.23
	c-0.27,0.98-0.27,2.09,0.26,2.99c0.52,0.89,1.25,1.51,2.23,1.88l0,0c1.46,0.54,2.96,0.86,4.49,1.12c1.22,0.21,2.45,0.32,3.69,0.33
	c2.79,0.03,5.62-0.31,8.34-0.94c2.52-0.58,5-1.41,7.37-2.45c2.37-1.03,4.55-2.36,6.62-3.9c4.04-2.99,7.21-7.19,8.96-11.91
	c0.38-1.03,0.67-2.09,0.87-3.17c0.25-1.33,0.5-2.68,0.43-4.04"/>
<path class="st3" d="M144.13,18.85"/>
<linearGradient id="SVGID_4_" gradientUnits="userSpaceOnUse" x1="123.332" y1="43.9154" x2="172.3616" y2="43.9154" gradientTransform="matrix(0.999 0.0448 -0.0448 0.999 2.6427 -7.368)">
	<stop  offset="0.0564" style="stop-color:#A2FECD"/>
	<stop  offset="0.3483" style="stop-color:#45C0EF"/>
	<stop  offset="0.4875" style="stop-color:#1EA6FE"/>
	<stop  offset="0.7976" style="stop-color:#3364FF"/>
</linearGradient>
<path class="st4" d="M146.92,12.78c-0.63,0.99-1.18,2.03-1.72,3.07c-2.42,4.63-4.46,9.47-5.98,14.47
	c-1.52,5.01-2.56,10.18-3.12,15.38c-0.27,2.45-0.42,4.91-0.45,7.38c-0.04,2.74,0.07,5.55,0.69,8.24c0.64,2.74,1.83,5.29,3.63,7.46
	c0.83,1,1.84,1.89,2.92,2.62c0.67,0.45,1.4,0.79,2.13,1.13c0.45,0.21,0.92,0.38,1.41,0.51c0.83,0.21,1.7,0.37,2.55,0.42
	c0.88,0.05,1.77-0.04,2.64-0.15c1.43-0.18,2.84-0.69,4.14-1.28c1.33-0.6,2.55-1.45,3.7-2.34c0.94-0.73,1.81-1.55,2.63-2.4
	c0.81-0.83,1.57-1.7,2.34-2.57c0.39-0.33,0.68-0.73,0.85-1.21c0.26-0.45,0.4-0.94,0.4-1.47c0.04-0.95-0.33-2.09-1.01-2.78
	c-0.7-0.71-1.65-1.25-2.68-1.25c-0.96,0-2.11,0.25-2.78,1.01c-1.73,1.96-3.48,3.94-5.63,5.46c0.27-0.19,0.54-0.38,0.81-0.57
	c-0.95,0.66-1.97,1.22-3.06,1.63c0.31-0.12,0.63-0.23,0.94-0.35c-0.86,0.32-1.75,0.53-2.67,0.62c0.34-0.03,0.69-0.06,1.03-0.09
	c-0.78,0.07-1.56,0.04-2.33-0.1c0.34,0.06,0.68,0.12,1.02,0.18c-0.68-0.13-1.34-0.35-1.96-0.64c0.3,0.14,0.6,0.29,0.9,0.43
	c-0.72-0.35-1.39-0.79-2.01-1.3c0.25,0.21,0.5,0.43,0.75,0.64c-0.73-0.62-1.37-1.34-1.93-2.12c0.19,0.27,0.38,0.54,0.57,0.81
	c-0.64-0.91-1.15-1.9-1.54-2.95c0.12,0.31,0.23,0.63,0.35,0.94c-0.6-1.64-0.92-3.36-1.07-5.1c0.03,0.34,0.06,0.69,0.09,1.03
	c-0.19-2.2-0.15-4.43-0.04-6.64c0.1-2.2,0.3-4.39,0.59-6.57c0.16-1.24,0.36-2.47,0.58-3.7c-0.06,0.34-0.12,0.68-0.18,1.02
	c0.97-5.34,2.48-10.57,4.51-15.6c0.58-1.44,1.21-2.85,1.87-4.25c-0.14,0.3-0.29,0.6-0.43,0.9c0.64-1.34,1.31-2.65,2.02-3.95
	L146.92,12.78z"/>
<g>
	
		<linearGradient id="SVGID_5_" gradientUnits="userSpaceOnUse" x1="155.7806" y1="37.9489" x2="174.0849" y2="37.9489" gradientTransform="matrix(0.999 0.0448 -0.0448 0.999 2.6427 -7.368)">
		<stop  offset="0" style="stop-color:#A2FECD"/>
		<stop  offset="0.1018" style="stop-color:#8CEFD5"/>
		<stop  offset="0.4813" style="stop-color:#3DBBF2"/>
		<stop  offset="0.6556" style="stop-color:#1EA6FE"/>
	</linearGradient>
	<path class="st5" d="M165.53,41.79c0.14,0.01,0.28,0.01,0.42,0.02c0.53,0.04,1.03-0.04,1.5-0.27c0.49-0.13,0.91-0.38,1.28-0.74
		c0.39-0.33,0.68-0.73,0.85-1.21c0.26-0.45,0.4-0.94,0.4-1.47c-0.03-0.34-0.06-0.69-0.09-1.03c-0.15-0.66-0.46-1.24-0.92-1.75
		c-0.25-0.21-0.5-0.43-0.75-0.64c-0.59-0.38-1.23-0.58-1.92-0.61c-0.14-0.01-0.28-0.01-0.42-0.02c-0.53-0.04-1.03,0.04-1.5,0.27
		c-0.49,0.13-0.91,0.38-1.28,0.74c-0.39,0.33-0.68,0.73-0.85,1.21c-0.26,0.45-0.4,0.94-0.4,1.47c0.03,0.34,0.06,0.69,0.09,1.03
		c0.15,0.66,0.46,1.24,0.92,1.75c0.25,0.21,0.5,0.43,0.75,0.64C164.19,41.56,164.83,41.76,165.53,41.79L165.53,41.79z"/>
</g>
<g>
	
		<linearGradient id="SVGID_6_" gradientUnits="userSpaceOnUse" x1="171.4303" y1="41.3298" x2="214.3124" y2="58.8705" gradientTransform="matrix(0.999 0.0448 -0.0448 0.999 2.6427 -7.368)">
		<stop  offset="0.0327" style="stop-color:#A2FECD"/>
		<stop  offset="0.267" style="stop-color:#48C2EF"/>
		<stop  offset="0.3872" style="stop-color:#1EA6FE"/>
	</linearGradient>
	<path class="st6" d="M175.28,70.2c4.83-3.14,9.48-6.57,13.8-10.38c4.32-3.8,8.29-7.99,11.88-12.49c3.43-4.3,6.45-8.95,8.91-13.88
		c2.59-5.18,4.68-10.58,5.98-16.24c0.39-1.69,0.82-3.45,0.75-5.2c-0.04-0.97-0.11-1.96-0.43-2.88c-0.41-1.17-0.86-2.03-1.62-3.02
		c-0.51-0.66-1.19-1.26-1.9-1.68c-1.03-0.62-2.05-0.94-3.24-1.07c-0.56-0.06-1.15,0.02-1.7,0.09c-0.27,0.03-0.53,0.1-0.78,0.19
		c-1.12,0.39-2.01,0.86-2.94,1.63c-1.07,0.89-1.93,2.1-2.62,3.3c-0.71,1.22-1.35,2.49-2.01,3.74c-1.39,2.65-2.74,5.32-4.04,8.01
		c-2.72,5.6-5.3,11.27-7.74,17.01c-2.33,5.48-4.54,11.01-6.67,16.58c-2.13,5.57-4.17,11.17-6.17,16.79c-2,5.62-3.95,11.26-5.89,16.9
		c-0.47,1.38-0.95,2.75-1.42,4.13c-0.32,0.94-0.2,2.12,0.26,2.99c0.43,0.82,1.32,1.63,2.23,1.88c2.05,0.56,4.16-0.44,4.87-2.48
		c3.09-8.99,6.18-17.99,9.43-26.92c3.24-8.93,6.64-17.81,10.34-26.56c2.07-4.9,4.24-9.76,6.52-14.56c-0.14,0.3-0.29,0.6-0.43,0.9
		c1.36-2.85,2.75-5.68,4.19-8.48c0.72-1.39,1.44-2.78,2.18-4.15c0.62-1.15,1.22-2.31,2.06-3.32c-0.21,0.25-0.43,0.5-0.64,0.75
		c0.34-0.4,0.72-0.76,1.15-1.06c-0.27,0.19-0.54,0.38-0.81,0.57c0.26-0.17,0.53-0.32,0.81-0.43c-0.31,0.12-0.63,0.23-0.94,0.35
		c0.29-0.11,0.59-0.17,0.9-0.2c-0.34,0.03-0.69,0.06-1.03,0.09c0.25-0.01,0.49,0,0.73,0.04c-0.34-0.06-0.68-0.12-1.02-0.18
		c0.28,0.06,0.55,0.14,0.81,0.26c-0.3-0.14-0.6-0.29-0.9-0.43c0.3,0.15,0.57,0.33,0.82,0.54c-0.25-0.21-0.5-0.43-0.75-0.64
		c0.29,0.25,0.54,0.53,0.76,0.84c-0.19-0.27-0.38-0.54-0.57-0.81c0.24,0.35,0.44,0.72,0.59,1.12c-0.12-0.31-0.23-0.63-0.35-0.94
		c0.17,0.47,0.26,0.96,0.31,1.45c-0.03-0.34-0.06-0.69-0.09-1.03c0.08,0.97-0.02,1.92-0.18,2.87c0.06-0.34,0.12-0.68,0.18-1.02
		c-0.99,5.44-2.91,10.75-5.27,15.73c0.14-0.3,0.29-0.6,0.43-0.9c-2.29,4.81-5.1,9.37-8.33,13.62c-0.92,1.21-1.87,2.39-2.85,3.55
		c0.21-0.25,0.43-0.5,0.64-0.75c-4.32,5.08-9.2,9.66-14.45,13.76c-1.47,1.15-2.98,2.26-4.51,3.34c0.27-0.19,0.54-0.38,0.81-0.57
		c-1.2,0.84-2.33,1.68-3.56,2.48c-0.86,0.56-2.56,1.75-3.68,2.63c-0.71,0.56,0.06,2.59,0.55,3.43c0.49,0.85-0.17,2.01,1.95,3.04
		C171.55,72.95,174.5,70.93,175.28,70.2L175.28,70.2z"/>
</g>
<linearGradient id="SVGID_7_" gradientUnits="userSpaceOnUse" x1="214.229" y1="21.0031" x2="158.1499" y2="67.9611" gradientTransform="matrix(0.999 0.0448 -0.0448 0.999 2.6427 -7.368)">
	<stop  offset="0.2804" style="stop-color:#1EA6FE"/>
	<stop  offset="0.5156" style="stop-color:#2A81FF"/>
	<stop  offset="0.7292" style="stop-color:#3364FF"/>
	<stop  offset="0.8351" style="stop-color:#278AFE"/>
	<stop  offset="0.9251" style="stop-color:#1EA6FE"/>
</linearGradient>
<path class="st7" d="M208.89,11.85c0.01,0.77-0.08,1.54-0.21,2.31c0.06-0.34,0.12-0.68,0.18-1.02c-0.99,5.44-2.91,10.75-5.27,15.73
	c0.14-0.3,0.29-0.6,0.43-0.9c-2.29,4.81-5.1,9.37-8.33,13.62c-0.92,1.21-1.87,2.39-2.85,3.55c0.21-0.25,0.43-0.5,0.64-0.75
	c-4.32,5.08-9.2,9.66-14.45,13.76c-1.47,1.15-2.98,2.26-4.51,3.34c0.27-0.19,0.54-0.38,0.81-0.57c-1.2,0.84-2.33,1.68-3.56,2.48
	c-0.86,0.56-2.56,1.75-3.68,2.63c-0.71,0.56,0.06,2.59,0.55,3.43c0.49,0.85-0.17,2.01,1.95,3.04c0.96,0.46,3.91-1.56,4.7-2.28l0,0
	c4.83-3.14,9.48-6.57,13.8-10.38c4.32-3.8,8.29-7.99,11.88-12.49c3.43-4.3,6.45-8.95,8.91-13.88c2.59-5.18,4.68-10.58,5.98-16.24
	c0.39-1.69,0.82-3.45,0.75-5.2L208.89,11.85z"/>
<linearGradient id="SVGID_8_" gradientUnits="userSpaceOnUse" x1="191.1802" y1="12.8351" x2="191.1802" y2="12.8351">
	<stop  offset="0" style="stop-color:#A2FECD"/>
	<stop  offset="0.0375" style="stop-color:#95F6D2"/>
	<stop  offset="0.2022" style="stop-color:#62D3E5"/>
	<stop  offset="0.3459" style="stop-color:#3DBBF2"/>
	<stop  offset="0.4615" style="stop-color:#26ACFB"/>
	<stop  offset="0.5346" style="stop-color:#1EA6FE"/>
	<stop  offset="1" style="stop-color:#3364FF"/>
</linearGradient>
<path class="st8" d="M191.18,12.84"/>
<linearGradient id="SVGID_9_" gradientUnits="userSpaceOnUse" x1="191.7456" y1="13.0301" x2="191.7456" y2="13.0301">
	<stop  offset="0" style="stop-color:#A2FECD"/>
	<stop  offset="0.0375" style="stop-color:#95F6D2"/>
	<stop  offset="0.2022" style="stop-color:#62D3E5"/>
	<stop  offset="0.3459" style="stop-color:#3DBBF2"/>
	<stop  offset="0.4615" style="stop-color:#26ACFB"/>
	<stop  offset="0.5346" style="stop-color:#1EA6FE"/>
	<stop  offset="1" style="stop-color:#3364FF"/>
</linearGradient>
<path class="st9" d="M191.75,13.03"/>
<linearGradient id="SVGID_10_" gradientUnits="userSpaceOnUse" x1="192.0115" y1="12.9024" x2="192.0115" y2="12.9024">
	<stop  offset="0" style="stop-color:#A2FECD"/>
	<stop  offset="0.0375" style="stop-color:#95F6D2"/>
	<stop  offset="0.2022" style="stop-color:#62D3E5"/>
	<stop  offset="0.3459" style="stop-color:#3DBBF2"/>
	<stop  offset="0.4615" style="stop-color:#26ACFB"/>
	<stop  offset="0.5346" style="stop-color:#1EA6FE"/>
	<stop  offset="1" style="stop-color:#3364FF"/>
</linearGradient>
<path class="st10" d="M192.01,12.9"/>
<linearGradient id="SVGID_11_" gradientUnits="userSpaceOnUse" x1="191.3198" y1="13.1875" x2="191.3198" y2="13.1875">
	<stop  offset="0" style="stop-color:#A2FECD"/>
	<stop  offset="0.0375" style="stop-color:#95F6D2"/>
	<stop  offset="0.2022" style="stop-color:#62D3E5"/>
	<stop  offset="0.3459" style="stop-color:#3DBBF2"/>
	<stop  offset="0.4615" style="stop-color:#26ACFB"/>
	<stop  offset="0.5346" style="stop-color:#1EA6FE"/>
	<stop  offset="1" style="stop-color:#3364FF"/>
</linearGradient>
<path class="st11" d="M191.32,13.19"/>
<linearGradient id="SVGID_12_" gradientUnits="userSpaceOnUse" x1="163.6181" y1="44.2721" x2="217.4759" y2="62.5164" gradientTransform="matrix(0.999 0.0448 -0.0448 0.999 2.6427 -7.368)">
	<stop  offset="0.1553" style="stop-color:#A2FECD"/>
	<stop  offset="0.3724" style="stop-color:#48C2EF"/>
	<stop  offset="0.4837" style="stop-color:#1EA6FE"/>
	<stop  offset="0.7381" style="stop-color:#2983FF"/>
	<stop  offset="1" style="stop-color:#3364FF"/>
</linearGradient>
<path class="st12" d="M201.37,8.57c-0.71,1.22-1.35,2.49-2.01,3.74c-1.39,2.65-2.74,5.32-4.04,8.01c-2.72,5.6-5.3,11.27-7.74,17.01
	c-2.33,5.48-4.54,11.01-6.67,16.58c-2.13,5.57-4.17,11.17-6.17,16.79c-2,5.62-3.95,11.26-5.89,16.9c-0.47,1.38-0.95,2.75-1.42,4.13
	c-0.32,0.94-0.2,2.12,0.26,2.99c0.43,0.82,1.32,1.63,2.23,1.88c2.05,0.56,4.16-0.44,4.87-2.48c3.09-8.99,6.18-17.99,9.43-26.92
	c3.24-8.93,6.64-17.81,10.34-26.56c2.07-4.9,4.24-9.76,6.52-14.56c-0.14,0.3-0.29,0.6-0.43,0.9c1.36-2.85,2.75-5.68,4.19-8.48
	c0.72-1.39,1.44-2.78,2.18-4.15L201.37,8.57z"/>
<g>
	
		<linearGradient id="SVGID_13_" gradientUnits="userSpaceOnUse" x1="210.5024" y1="49.0833" x2="219.1669" y2="63.2573" gradientTransform="matrix(0.999 0.0448 -0.0448 0.999 2.6427 -7.368)">
		<stop  offset="0.1568" style="stop-color:#2395FE"/>
		<stop  offset="0.5059" style="stop-color:#20A0FE"/>
		<stop  offset="0.6386" style="stop-color:#1EA6FE"/>
	</linearGradient>
	<path class="st13" d="M207.22,61.05c0.92,0.54,1.9,1.01,2.89,1.39c0.71,0.27,1.45,0.48,2.2,0.63c1.06,0.21,2.13,0.4,3.21,0.43
		c1.08,0.03,2.17-0.06,3.24-0.2c0.75-0.1,1.49-0.26,2.2-0.5c0.93-0.3,1.87-0.65,2.72-1.16c0.55-0.33,1.07-0.7,1.58-1.09
		c0.27-0.21,0.53-0.43,0.77-0.67c0.44-0.44,0.85-0.93,1.22-1.43c0.38-0.52,0.63-1.1,0.9-1.68c0.13-0.28,0.24-0.57,0.31-0.87
		c0.14-0.62,0.29-1.27,0.29-1.91c0-1.33-0.28-2.56-0.88-3.76c-0.28-0.56-0.68-1.09-1.06-1.58c-0.21-0.27-0.45-0.52-0.71-0.74
		c-0.48-0.42-0.96-0.85-1.5-1.18c-0.6-0.36-1.24-0.66-1.89-0.91c-0.36-0.14-0.73-0.24-1.11-0.33c-0.7-0.15-1.42-0.29-2.13-0.35
		c-1.07-0.1-2.13,0-3.19,0.1c-1.69,0.16-3.27,0.65-4.85,1.28c-1.54,0.61-2.95,1.52-4.26,2.55c-0.53,0.42-1.04,0.88-1.5,1.38
		c-0.67,0.72-1.31,1.48-1.86,2.3c-0.57,0.85-1.01,1.79-1.42,2.73c-0.29,0.66-0.51,1.34-0.68,2.04c-0.24,1.01-0.43,2.04-0.5,3.07
		c-0.07,1.04,0.02,2.07,0.12,3.11c0.07,0.71,0.2,1.42,0.4,2.1c0.28,0.98,0.64,1.96,1.1,2.87c0.44,0.86,1,1.67,1.58,2.44
		c0.39,0.52,0.82,1,1.29,1.45c1.17,1.11,2.45,2.11,3.9,2.83c1.47,0.74,2.96,1.36,4.57,1.68c1.63,0.32,3.24,0.55,4.91,0.43
		c1.75-0.13,3.46-0.37,5.13-0.93c1.66-0.56,3.27-1.23,4.78-2.13c1.5-0.9,2.94-1.94,4.24-3.11c0.53-0.47,1.04-0.97,1.52-1.49
		c0.39-0.33,0.68-0.73,0.85-1.21c0.26-0.45,0.4-0.94,0.4-1.47c0.04-0.53-0.04-1.03-0.27-1.5c-0.13-0.49-0.38-0.91-0.74-1.28
		c-0.7-0.71-1.65-1.25-2.68-1.25c-0.98,0-2.08,0.27-2.78,1.01c-1.11,1.18-2.33,2.25-3.66,3.19c0.27-0.19,0.54-0.38,0.81-0.57
		c-1.42,1-2.96,1.83-4.59,2.44c0.31-0.12,0.63-0.23,0.94-0.35c-1.41,0.52-2.89,0.87-4.39,1.01c0.34-0.03,0.69-0.06,1.03-0.09
		c-1.31,0.11-2.62,0.05-3.91-0.18c0.34,0.06,0.68,0.12,1.02,0.18c-1.26-0.23-2.48-0.62-3.63-1.17c0.3,0.14,0.6,0.29,0.9,0.43
		c-1.04-0.5-2.02-1.12-2.9-1.86c0.25,0.21,0.5,0.43,0.75,0.64c-0.75-0.64-1.43-1.37-2-2.18c0.19,0.27,0.38,0.54,0.57,0.81
		c-0.54-0.76-0.97-1.59-1.3-2.46c0.12,0.31,0.23,0.63,0.35,0.94c-0.36-0.98-0.59-2-0.68-3.04c0.03,0.34,0.06,0.69,0.09,1.03
		c-0.1-1.12-0.04-2.24,0.16-3.34c-0.06,0.34-0.12,0.68-0.18,1.02c0.2-1.08,0.54-2.13,1.01-3.12c-0.14,0.3-0.29,0.6-0.43,0.9
		c0.44-0.92,1-1.78,1.66-2.56c-0.21,0.25-0.43,0.5-0.64,0.75c0.72-0.85,1.54-1.59,2.45-2.23c-0.27,0.19-0.54,0.38-0.81,0.57
		c0.99-0.69,2.06-1.25,3.19-1.67c-0.31,0.12-0.63,0.23-0.94,0.35c1.16-0.42,2.36-0.7,3.59-0.81c-0.34,0.03-0.69,0.06-1.03,0.09
		c1-0.08,2.01-0.07,3,0.1c-0.34-0.06-0.68-0.12-1.02-0.18c0.66,0.12,1.3,0.31,1.9,0.6c-0.3-0.14-0.6-0.29-0.9-0.43
		c0.43,0.21,0.83,0.47,1.2,0.78c-0.25-0.21-0.5-0.43-0.75-0.64c0.33,0.29,0.63,0.6,0.88,0.96c-0.19-0.27-0.38-0.54-0.57-0.81
		c0.22,0.32,0.4,0.66,0.54,1.02c-0.12-0.31-0.23-0.63-0.35-0.94c0.12,0.32,0.19,0.65,0.23,0.99c-0.03-0.34-0.06-0.69-0.09-1.03
		c0.03,0.35,0.02,0.7-0.04,1.04c0.06-0.34,0.12-0.68,0.18-1.02c-0.07,0.38-0.19,0.74-0.35,1.09c0.14-0.3,0.29-0.6,0.43-0.9
		c-0.19,0.39-0.43,0.75-0.71,1.08c0.21-0.25,0.43-0.5,0.64-0.75c-0.4,0.47-0.86,0.87-1.36,1.22c0.27-0.19,0.54-0.38,0.81-0.57
		c-0.61,0.42-1.26,0.76-1.95,1.02c0.31-0.12,0.63-0.23,0.94-0.35c-1.02,0.38-2.09,0.59-3.17,0.69c0.34-0.03,0.69-0.06,1.03-0.09
		c-1.19,0.1-2.38,0.04-3.55-0.16c0.34,0.06,0.68,0.12,1.02,0.18c-1.17-0.21-2.31-0.57-3.39-1.08c0.3,0.14,0.6,0.29,0.9,0.43
		c-0.35-0.17-0.69-0.35-1.03-0.55c-0.89-0.52-1.94-0.75-2.95-0.52c-0.51,0.1-0.95,0.31-1.34,0.63c-0.43,0.25-0.78,0.6-1.04,1.04
		c-0.51,0.87-0.8,1.95-0.52,2.95C205.81,59.61,206.35,60.53,207.22,61.05L207.22,61.05z"/>
</g>
<linearGradient id="SVGID_14_" gradientUnits="userSpaceOnUse" x1="205.5192" y1="56.6191" x2="228.1575" y2="56.6191" gradientTransform="matrix(0.999 0.0448 -0.0448 0.999 2.6427 -7.368)">
	<stop  offset="0" style="stop-color:#A2FECD"/>
	<stop  offset="0" style="stop-color:#8DE1D6"/>
	<stop  offset="0" style="stop-color:#5D9EEC"/>
	<stop  offset="0" style="stop-color:#3F74FA"/>
	<stop  offset="0" style="stop-color:#3364FF"/>
	<stop  offset="0.7448" style="stop-color:#1EA6FE"/>
</linearGradient>
<path class="st14" d="M220.61,54.47c-0.61,0.42-1.26,0.76-1.95,1.02c0.31-0.12,0.63-0.23,0.94-0.35c-1.02,0.38-2.09,0.59-3.17,0.69
	c0.34-0.03,0.69-0.06,1.03-0.09c-1.19,0.1-2.38,0.04-3.55-0.16c0.34,0.06,0.68,0.12,1.02,0.18c-1.17-0.21-2.31-0.57-3.39-1.08
	c0.3,0.14,0.6,0.29,0.9,0.43c-0.35-0.17-0.69-0.35-1.03-0.55c-0.89-0.52-1.94-0.75-2.95-0.52c-0.51,0.1-0.95,0.31-1.34,0.63
	c-0.43,0.25-0.78,0.6-1.04,1.04c-0.51,0.87-0.8,1.95-0.52,2.95c0.26,0.95,0.8,1.87,1.67,2.38l0,0c0.92,0.54,1.9,1.01,2.89,1.39
	c0.71,0.27,1.45,0.48,2.2,0.63c1.06,0.21,2.13,0.4,3.21,0.43c1.08,0.03,2.17-0.06,3.24-0.2c0.75-0.1,1.49-0.26,2.2-0.5
	c0.93-0.3,1.87-0.65,2.72-1.16c0.55-0.33,1.07-0.7,1.58-1.09c0.27-0.21,0.53-0.43,0.77-0.67c0.44-0.44,0.85-0.93,1.22-1.43
	c0.38-0.52,0.63-1.1,0.9-1.68L220.61,54.47z"/>
<path class="st3" d="M221.16,53.82"/>
<path class="st3" d="M221.24,53.49"/>
<path class="st3" d="M221.16,53.31"/>
<path class="st3" d="M221.02,53.28"/>
<path class="st3" d="M220.88,53.33"/>
<path class="st3" d="M220.68,53.25"/>
<path class="st3" d="M220.37,53.1"/>
<path class="st3" d="M219.93,52.96"/>
<linearGradient id="SVGID_15_" gradientUnits="userSpaceOnUse" x1="191.4214" y1="58.9606" x2="241.1287" y2="58.9606" gradientTransform="matrix(0.999 0.0448 -0.0448 0.999 2.6427 -7.368)">
	<stop  offset="0" style="stop-color:#A2FECD"/>
	<stop  offset="0.0189" style="stop-color:#9BFACF"/>
	<stop  offset="0.2204" style="stop-color:#58CDE8"/>
	<stop  offset="0.3663" style="stop-color:#2EB1F8"/>
	<stop  offset="0.4409" style="stop-color:#1EA6FE"/>
	<stop  offset="0.7356" style="stop-color:#2885FE"/>
	<stop  offset="1" style="stop-color:#3364FF"/>
</linearGradient>
<path class="st15" d="M222.7,45.82c-0.36-0.14-0.73-0.24-1.11-0.33c-0.7-0.15-1.42-0.29-2.13-0.35c-1.07-0.1-2.13,0-3.19,0.1
	c-1.69,0.16-3.27,0.65-4.85,1.28c-1.54,0.61-2.95,1.52-4.26,2.55c-0.53,0.42-1.04,0.88-1.5,1.38c-0.67,0.72-1.31,1.48-1.86,2.3
	c-0.57,0.85-1.01,1.79-1.42,2.73c-0.29,0.66-0.51,1.34-0.68,2.04c-0.24,1.01-0.43,2.04-0.5,3.07c-0.07,1.04,0.02,2.07,0.12,3.11
	c0.07,0.71,0.2,1.42,0.4,2.1c0.28,0.98,0.64,1.96,1.1,2.87c0.44,0.86,1,1.67,1.58,2.44c0.39,0.52,0.82,1,1.29,1.45
	c1.17,1.11,2.45,2.11,3.9,2.83c1.47,0.74,2.96,1.36,4.57,1.68c1.63,0.32,3.24,0.55,4.91,0.43c1.75-0.13,3.46-0.37,5.13-0.93
	c1.66-0.56,3.27-1.23,4.78-2.13c1.5-0.9,2.94-1.94,4.24-3.11c0.53-0.47,1.04-0.97,1.52-1.49c0.39-0.33,0.68-0.73,0.85-1.21
	c0.26-0.45,0.4-0.94,0.4-1.47c0.04-0.53-0.04-1.03-0.27-1.5c-0.13-0.49-0.38-0.91-0.74-1.28c-0.7-0.71-1.65-1.25-2.68-1.25
	c-0.98,0-2.08,0.27-2.78,1.01c-1.11,1.18-2.33,2.25-3.66,3.19c0.27-0.19,0.54-0.38,0.81-0.57c-1.42,1-2.96,1.83-4.59,2.44
	c0.31-0.12,0.63-0.23,0.94-0.35c-1.41,0.52-2.89,0.87-4.39,1.01c0.34-0.03,0.69-0.06,1.03-0.09c-1.31,0.11-2.62,0.05-3.91-0.18
	c0.34,0.06,0.68,0.12,1.02,0.18c-1.26-0.23-2.48-0.62-3.63-1.17c0.3,0.14,0.6,0.29,0.9,0.43c-1.04-0.5-2.02-1.12-2.9-1.86
	c0.25,0.21,0.5,0.43,0.75,0.64c-0.75-0.64-1.43-1.37-2-2.18c0.19,0.27,0.38,0.54,0.57,0.81c-0.54-0.76-0.97-1.59-1.3-2.46
	c0.12,0.31,0.23,0.63,0.35,0.94c-0.36-0.98-0.59-2-0.68-3.04c0.03,0.34,0.06,0.69,0.09,1.03c-0.1-1.12-0.04-2.24,0.16-3.34
	c-0.06,0.34-0.12,0.68-0.18,1.02c0.2-1.08,0.54-2.13,1.01-3.12c-0.14,0.3-0.29,0.6-0.43,0.9c0.44-0.92,1-1.78,1.66-2.56
	c-0.21,0.25-0.43,0.5-0.64,0.75c0.72-0.85,1.54-1.59,2.45-2.23c-0.27,0.19-0.54,0.38-0.81,0.57c0.99-0.69,2.06-1.25,3.19-1.67
	c-0.31,0.12-0.63,0.23-0.94,0.35c1.16-0.42,2.36-0.7,3.59-0.81c-0.34,0.03-0.69,0.06-1.03,0.09c1-0.08,2.01-0.07,3,0.1L222.7,45.82z
	"/>
<g>
	
		<linearGradient id="SVGID_16_" gradientUnits="userSpaceOnUse" x1="150.506" y1="58.9662" x2="189.7976" y2="58.9662" gradientTransform="matrix(0.999 0.0448 -0.0448 0.999 2.6427 -7.368)">
		<stop  offset="0" style="stop-color:#A2FECD"/>
		<stop  offset="0.0609" style="stop-color:#8CEFD5"/>
		<stop  offset="0.2877" style="stop-color:#3DBBF2"/>
		<stop  offset="0.3919" style="stop-color:#1EA6FE"/>
		<stop  offset="0.7579" style="stop-color:#3364FF"/>
	</linearGradient>
	<path class="st16" d="M160.82,48.39c-0.56,4.21-0.92,8.44-1.07,12.68c-0.03,0.96-0.08,1.92-0.06,2.88
		c0.01,0.73,0.08,1.46,0.16,2.19c0.05,0.4,0.12,0.8,0.23,1.18c0.14,0.48,0.33,0.95,0.51,1.42c0.07,0.19,0.16,0.37,0.25,0.54
		c0.24,0.43,0.54,0.83,0.84,1.23c0.12,0.16,0.25,0.32,0.4,0.46c0.47,0.46,1,0.94,1.6,1.25c0.59,0.3,1.22,0.63,1.87,0.78
		c0.73,0.16,1.48,0.31,2.23,0.29c0.74-0.03,1.49-0.08,2.21-0.25c0.74-0.17,1.46-0.45,2.15-0.75c0.41-0.18,0.8-0.39,1.17-0.64
		c0.46-0.22,0.84-0.54,1.13-0.94c0.36-0.36,0.61-0.78,0.75-1.28c0.18-0.51,0.23-1.02,0.14-1.53c0-0.51-0.13-1-0.39-1.45
		c-0.49-0.85-1.25-1.61-2.23-1.88c-0.34-0.06-0.68-0.12-1.02-0.18c-0.7-0.03-1.35,0.12-1.97,0.44c-0.48,0.32-1,0.59-1.54,0.79
		c0.31-0.12,0.63-0.23,0.94-0.35c-0.55,0.2-1.11,0.33-1.69,0.39c0.34-0.03,0.69-0.06,1.03-0.09c-0.45,0.04-0.9,0.03-1.35-0.05
		c0.34,0.06,0.68,0.12,1.02,0.18c-0.37-0.07-0.73-0.18-1.07-0.34c0.3,0.14,0.6,0.29,0.9,0.43c-0.27-0.13-0.51-0.29-0.74-0.48
		c0.25,0.21,0.5,0.43,0.75,0.64c-0.24-0.2-0.45-0.43-0.63-0.69c0.19,0.27,0.38,0.54,0.57,0.81c-0.22-0.31-0.39-0.65-0.52-1.01
		c0.12,0.31,0.23,0.63,0.35,0.94c-0.21-0.58-0.32-1.2-0.38-1.81c0.03,0.34,0.06,0.69,0.09,1.03c-0.08-0.93-0.05-1.87-0.02-2.8
		c0.03-1.11,0.07-2.21,0.13-3.32c0.12-2.21,0.29-4.42,0.52-6.62c0.13-1.25,0.28-2.5,0.45-3.75c0.04-0.53-0.04-1.03-0.27-1.5
		c-0.13-0.49-0.38-0.91-0.74-1.28c-0.33-0.39-0.73-0.68-1.21-0.85c-0.45-0.26-0.94-0.4-1.47-0.4c-1,0-2.05,0.28-2.78,1.01
		c-0.21,0.25-0.43,0.5-0.64,0.75C161.06,47.05,160.86,47.69,160.82,48.39L160.82,48.39z"/>
</g>
<path class="st17" d="M60.87,70.5C51.07,73.3,40.3,73,28.76,72.45c-1.66-0.08-2.96-1.45-2.96-3.1v0c0-1.78,1.49-3.19,3.26-3.1
	c10.3,0.51,20.39,0.72,30.25-1.64c1.92-0.46,3.76,0.99,3.76,2.96v0C63.07,68.92,62.18,70.12,60.87,70.5z"/>
<path class="st17" d="M56.51,45.81h-1.54c-1.79,0-3.24-1.45-3.24-3.24v-0.68c0-1.79,1.45-3.24,3.24-3.24h1.54
	c1.79,0,3.24,1.45,3.24,3.24v0.68C59.74,44.36,58.29,45.81,56.51,45.81z"/>
<path class="st17" d="M25.8,68.75v-8.29c0-2.04,1.66-3.7,3.7-3.7h0c2.04,0,3.7,1.66,3.7,3.7v8.29c0,2.04-1.66,3.7-3.7,3.7h0
	C27.46,72.45,25.8,70.79,25.8,68.75z"/>
<path class="st17" d="M106.44,70.5c-9.81,2.81-20.57,2.5-32.11,1.96c-1.66-0.08-2.96-1.45-2.96-3.1v0c0-1.78,1.49-3.19,3.26-3.1
	c10.3,0.51,20.39,0.72,30.25-1.64c1.92-0.46,3.76,0.99,3.76,2.96v0C108.65,68.92,107.75,70.12,106.44,70.5z"/>
<path class="st17" d="M71.37,68.75v-8.29c0-2.04,1.66-3.7,3.7-3.7h0c2.04,0,3.7,1.66,3.7,3.7v8.29c0,2.04-1.66,3.7-3.7,3.7h0
	C73.03,72.45,71.37,70.79,71.37,68.75z"/>
<path class="st17" d="M55.69,54.06V29.65c0-1.69,1.37-3.06,3.06-3.06h0.64c1.69,0,3.06,1.37,3.06,3.06v24.41
	c0,1.69-1.37,3.06-3.06,3.06h-0.64C57.06,57.12,55.69,55.75,55.69,54.06z"/>
<path class="st17" d="M102.57,54.06V29.65c0-1.69,1.37-3.06,3.06-3.06h0.64c1.69,0,3.06,1.37,3.06,3.06v24.41
	c0,1.69-1.37,3.06-3.06,3.06h-0.64C103.94,57.12,102.57,55.75,102.57,54.06z"/>
<path class="st17" d="M69.26,49.47"/>
<g>
	<path class="st17" d="M36.01,26.2c1.91-0.04,3.48,1.5,3.48,3.41c0,0,0,3.1,0,3.29c0,0.04,0.01,0.09,0.01,0.13
		c0.02,0.78,0.54,7.81,10.71,13.72c1.63,0.94,2.18,3.03,1.24,4.66c-0.63,1.09-1.77,1.7-2.95,1.7c-0.58,0-1.17-0.15-1.71-0.46
		c-4.61-2.68-8.17-5.88-10.6-9.54c-2.41,3.54-6.02,6.72-10.79,9.49c-0.54,0.31-1.13,0.46-1.71,0.46c-1.19,0-2.36-0.63-2.98-1.75
		c-0.91-1.63-0.29-3.69,1.32-4.63c4.62-2.69,7.93-5.87,9.58-9.2c1.1-2.23,1.11-3.79,1.1-4.07c0,0-0.01-0.22-0.02-0.49
		c0-0.64,0-3.23,0-3.23c0-1.86,1.45-3.42,3.31-3.48C35.99,26.2,36,26.2,36.01,26.2z M32.69,33.44L32.69,33.44L32.69,33.44z"/>
</g>
<path class="st17" d="M69.28,49.28v0.12c0,1.52,1.19,2.77,2.71,2.84c8.28,0.41,15.57,0.71,22.16-1.36c1.18-0.37,1.99-1.47,1.99-2.71
	c0-1.86-1.75-3.21-3.56-2.76c-5.76,1.44-11.24,1.47-16.55,1.23c0-0.77,0-3.26,0-4.03h17.39c1.57,0,2.84-1.27,2.84-2.84v-2.56v-7.2
	c0,0,0-0.1,0-0.23c0-1.57-1.27-2.84-2.84-2.84h-21.3c-1.57,0-2.84,1.27-2.84,2.84c0,1.57,1.27,2.84,2.84,2.84c0,0,17.37,0,17.37,0
	c0,0.76,0,3.26,0,4.32H72.12c-1.57,0-2.84,1.27-2.84,2.84V49.28z"/>
</svg>
