<svg xmlns="http://www.w3.org/2000/svg" viewBox="0 0 909.76 202.87"><defs><style>.cls-1{fill:#455a64;}.cls-2{fill:#00b8d4;}</style></defs><g id="레이어_2" data-name="레이어 2"><g id="레이어_1-2" data-name="레이어 1"><path class="cls-1" d="M392.13,21.41V39.47h-72V75.31h72V93.37h-72v44.95h72v17.92H302.24V21.41Z"/><path class="cls-1" d="M451.1,21.41q27.86,0,47.57,19.71Q518.38,61,518.39,88.82q0,28-19.72,47.7T451.1,156.24H401.61V21.41Zm0,116.91A47.56,47.56,0,0,0,486,123.84a47.69,47.69,0,0,0,14.47-35A47.54,47.54,0,0,0,486,53.94,47.55,47.55,0,0,0,451.1,39.47H419.54v98.85Z"/><path class="cls-2" d="M659.12,138.32v17.92H591.7q-28,0-47.7-19.72t-19.72-47.7q0-27.84,19.72-47.7,19.71-19.71,47.7-19.71A65.44,65.44,0,0,1,631,34.09a66.11,66.11,0,0,1,24.26,32.26H635.68a49,49,0,0,0-44-26.88,47.71,47.71,0,0,0-35,14.47,47.54,47.54,0,0,0-14.47,34.88,47.69,47.69,0,0,0,14.47,35,47.72,47.72,0,0,0,35,14.48Z"/><path class="cls-2" d="M795.31,156.24H775.45l-16-36H705.14l-16,36H669.43L732.3,21.41Zm-82.18-53.91h38.33L732.3,59.18Z"/><path class="cls-2" d="M908.05,21.41V156.24l-89.88-91.4v91.4H800.24V21.41l89.89,89.88V21.41Z"/><path class="cls-1" d="M314.19,182.16H307V187h8.39v3H303.32V171.92h12.09v3H307v4.3h7.15Z"/><path class="cls-1" d="M334.66,185.51l4.09-13.59h4.15L336.61,190h-3.89l-6.26-18.07h4.13Z"/><path class="cls-1" d="M365.83,182.16h-7.14V187h8.38v3H355V171.92h12.09v3h-8.36v4.3h7.14Z"/><path class="cls-1" d="M386.31,183.37h-3V190h-3.72V171.92h6.71a10.41,10.41,0,0,1,2.8.35,5.9,5.9,0,0,1,2.1,1,4.72,4.72,0,0,1,1.32,1.71,5.81,5.81,0,0,1,.45,2.36,6.47,6.47,0,0,1-.22,1.78,4.85,4.85,0,0,1-.64,1.4,4.94,4.94,0,0,1-1,1.07,6.6,6.6,0,0,1-1.34.8l3.91,7.38V190h-4Zm-3-3h3a4.17,4.17,0,0,0,1.29-.19,2.58,2.58,0,0,0,.91-.55,2.33,2.33,0,0,0,.56-.85,3.08,3.08,0,0,0,.18-1.09,2.73,2.73,0,0,0-.72-2,3,3,0,0,0-2.23-.73h-3Z"/><path class="cls-1" d="M412.44,180.06l3.76-8.14h4.07l-5.93,11.51V190h-3.79v-6.56l-5.93-11.51h4.09Z"/><path class="cls-1" d="M432.29,190V171.92h5.56a8.64,8.64,0,0,1,3.34.63,7.62,7.62,0,0,1,2.61,1.76,8.18,8.18,0,0,1,1.69,2.72,9.89,9.89,0,0,1,.61,3.52v.83a9.58,9.58,0,0,1-.61,3.51,7.73,7.73,0,0,1-1.69,2.72,7.53,7.53,0,0,1-2.63,1.75,8.74,8.74,0,0,1-3.36.63ZM436,174.94V187h1.8a4,4,0,0,0,3.36-1.46,6.51,6.51,0,0,0,1.16-4.15v-.85a6.54,6.54,0,0,0-1.15-4.17,4,4,0,0,0-3.33-1.42Z"/><path class="cls-1" d="M469.37,186.26h-6.53L461.6,190h-4l6.73-18.07h3.45L474.58,190h-4Zm-5.52-3h4.51l-2.27-6.76Z"/><path class="cls-1" d="M492.87,180.06l3.75-8.14h4.08l-5.94,11.51V190H491v-6.56l-5.93-11.51h4.08Z"/><path class="cls-2" d="M543.59,184a7.18,7.18,0,0,1-.62,2.53,5.81,5.81,0,0,1-1.44,2,6.51,6.51,0,0,1-2.23,1.29,8.84,8.84,0,0,1-3,.46,7.75,7.75,0,0,1-3.12-.6,6.39,6.39,0,0,1-2.35-1.73,7.94,7.94,0,0,1-1.47-2.73,11.66,11.66,0,0,1-.52-3.61v-1.19a11.36,11.36,0,0,1,.54-3.61,7.65,7.65,0,0,1,1.51-2.74,6.4,6.4,0,0,1,2.36-1.74,7.59,7.59,0,0,1,3.1-.61,8.55,8.55,0,0,1,3,.48,6.43,6.43,0,0,1,2.21,1.33,6.13,6.13,0,0,1,1.41,2,8.39,8.39,0,0,1,.65,2.55h-3.73a5.69,5.69,0,0,0-.27-1.42,2.89,2.89,0,0,0-.63-1,2.6,2.6,0,0,0-1.06-.64,5.08,5.08,0,0,0-1.56-.21,3.14,3.14,0,0,0-2.81,1.37,7.75,7.75,0,0,0-.93,4.24v1.22a12.68,12.68,0,0,0,.21,2.46,5.13,5.13,0,0,0,.65,1.76,2.83,2.83,0,0,0,1.14,1.06,3.67,3.67,0,0,0,1.69.36,4.85,4.85,0,0,0,1.52-.21,2.55,2.55,0,0,0,1.73-1.61,4.74,4.74,0,0,0,.3-1.41Z"/><path class="cls-2" d="M571.24,181.36a11.32,11.32,0,0,1-.56,3.72,8,8,0,0,1-1.56,2.79,7.07,7.07,0,0,1-2.43,1.75,8.26,8.26,0,0,1-6.23,0,7.11,7.11,0,0,1-2.44-1.75,8.08,8.08,0,0,1-1.59-2.79,11.31,11.31,0,0,1-.57-3.72v-.79a11.34,11.34,0,0,1,.56-3.71,8.53,8.53,0,0,1,1.58-2.81,6.91,6.91,0,0,1,2.44-1.76,8.11,8.11,0,0,1,6.22,0,6.91,6.91,0,0,1,2.44,1.76,8.53,8.53,0,0,1,1.58,2.81,11.61,11.61,0,0,1,.56,3.71Zm-3.77-.81a7.57,7.57,0,0,0-1-4.32,3.58,3.58,0,0,0-5.8,0,7.57,7.57,0,0,0-1,4.32v.81a10.49,10.49,0,0,0,.27,2.51,5.4,5.4,0,0,0,.77,1.82,3.26,3.26,0,0,0,1.23,1.11,3.63,3.63,0,0,0,1.67.38,3.25,3.25,0,0,0,2.89-1.49,7.64,7.64,0,0,0,1-4.33Z"/><path class="cls-2" d="M584.32,190V171.92h5.55a8.69,8.69,0,0,1,3.35.63,7.48,7.48,0,0,1,2.6,1.76,8,8,0,0,1,1.7,2.72,9.89,9.89,0,0,1,.61,3.52v.83a9.58,9.58,0,0,1-.61,3.51,7.75,7.75,0,0,1-1.7,2.72,7.4,7.4,0,0,1-2.62,1.75,8.74,8.74,0,0,1-3.36.63ZM588,174.94V187h1.8a4,4,0,0,0,3.36-1.46,6.51,6.51,0,0,0,1.16-4.15v-.85a6.54,6.54,0,0,0-1.15-4.17,4,4,0,0,0-3.34-1.42Z"/><path class="cls-2" d="M615.16,190h-3.73V171.92h3.73Z"/><path class="cls-2" d="M643.66,190H640L632.7,178.1V190H629V171.92h3.73L640,183.83V171.92h3.7Z"/><path class="cls-2" d="M671.58,187.7a6.57,6.57,0,0,1-.88.83,6.16,6.16,0,0,1-1.41.81,9.51,9.51,0,0,1-2,.64,12.2,12.2,0,0,1-2.64.25,8.46,8.46,0,0,1-3.19-.57A6.67,6.67,0,0,1,659,188a7.63,7.63,0,0,1-1.6-2.74,11.19,11.19,0,0,1-.56-3.72v-1.06a11.88,11.88,0,0,1,.54-3.74A8,8,0,0,1,658.9,174a6.69,6.69,0,0,1,2.39-1.7,8.22,8.22,0,0,1,3.12-.58,9.19,9.19,0,0,1,3,.45,5.8,5.8,0,0,1,2.15,1.23,5.68,5.68,0,0,1,1.35,1.89,8.51,8.51,0,0,1,.63,2.43H668a5.47,5.47,0,0,0-.35-1.24,2.73,2.73,0,0,0-.65-.94,2.76,2.76,0,0,0-1-.61,4.64,4.64,0,0,0-1.43-.21,3.32,3.32,0,0,0-2.91,1.45,7.6,7.6,0,0,0-1,4.29v1.09a7.22,7.22,0,0,0,1.07,4.29,3.69,3.69,0,0,0,3.17,1.45,6.67,6.67,0,0,0,1.16-.08,4.73,4.73,0,0,0,.85-.22,2.49,2.49,0,0,0,.59-.29,2.64,2.64,0,0,0,.39-.3v-3.11h-3.39v-2.75h7.11Z"/><path class="cls-2" d="M711.86,186.26h-6.53L704.09,190h-4l6.72-18.07h3.45L717.07,190h-4Zm-5.52-3h4.51l-2.27-6.76Z"/><path class="cls-2" d="M732.85,187h7.9v3H729.12V171.92h3.73Z"/><path class="cls-2" d="M757,187h7.91v3H753.25V171.92H757Z"/><path class="cls-2" d="M808.77,190h-3.72L797.8,178.1V190h-3.72V171.92h3.72l7.26,11.91V171.92h3.71Z"/><path class="cls-2" d="M826.34,190h-3.72V171.92h3.72Z"/><path class="cls-2" d="M854.46,187.7a6.15,6.15,0,0,1-.89.83,6.08,6.08,0,0,1-1.4.81,9.7,9.7,0,0,1-2,.64,12.17,12.17,0,0,1-2.63.25,8.44,8.44,0,0,1-3.2-.57,6.67,6.67,0,0,1-2.47-1.7,7.63,7.63,0,0,1-1.6-2.74,11.45,11.45,0,0,1-.56-3.72v-1.06a11.89,11.89,0,0,1,.53-3.74,7.88,7.88,0,0,1,1.53-2.75,6.69,6.69,0,0,1,2.39-1.7,8.17,8.17,0,0,1,3.11-.58,9.21,9.21,0,0,1,3.05.45,5.6,5.6,0,0,1,2.14,1.23,5.55,5.55,0,0,1,1.35,1.89,8.52,8.52,0,0,1,.64,2.43h-3.63a5,5,0,0,0-.35-1.24,2.71,2.71,0,0,0-.64-.94,2.76,2.76,0,0,0-1-.61,4.66,4.66,0,0,0-1.44-.21,3.32,3.32,0,0,0-2.9,1.45,7.6,7.6,0,0,0-1,4.29v1.09a7.14,7.14,0,0,0,1.08,4.29,3.68,3.68,0,0,0,3.16,1.45,6.71,6.71,0,0,0,1.17-.08,5,5,0,0,0,.85-.22,3,3,0,0,0,.59-.29,2.1,2.1,0,0,0,.38-.3v-3.11h-3.38v-2.75h7.11Z"/><path class="cls-2" d="M882.54,190h-3.72v-7.75h-7.26V190h-3.72V171.92h3.72v7.32h7.26v-7.32h3.72Z"/><path class="cls-2" d="M909.76,174.94h-5.53V190H900.5V174.94H895v-3h14.72Z"/><path class="cls-1" d="M180,87,96.94,170.08a5.63,5.63,0,0,1-8,0L77.67,158.77l87-87L150.59,57.63l-87,87L24,105.12a5.64,5.64,0,0,1,0-8l83.05-83L93,0l-87,87h0l-.14.14a19.75,19.75,0,0,0,0,27.94l.14.15,43.52,43.51,14.11,14.11,15.29,15.29.14.15a19.77,19.77,0,0,0,27.94,0l87.17-87.18Z"/><path class="cls-2" d="M163.72,14.7h0l-.14-.14a19.75,19.75,0,0,0-27.94,0l-.14.14-87,87,14.11,14.11,83.05-83.05a5.64,5.64,0,0,1,8,0l64.95,65a5.63,5.63,0,0,1,0,8l-83,83.05,14.11,14.11,87-87,.14-.14a19.75,19.75,0,0,0,0-27.94Z"/></g></g></svg>