<svg xmlns="http://www.w3.org/2000/svg" width="135" height="48" viewBox="0 0 135 48">
    <defs>
        <clipPath id="elbs59yyna">
            <path data-name="사각형 17" transform="translate(77.485 106.232)" style="fill:none;stroke:#707070" d="M0 0h135v48H0z"/>
        </clipPath>
    </defs>
    <g data-name="마스크 그룹 9" transform="translate(-77.485 -106.232)" style="clip-path:url(#elbs59yyna)">
        <g data-name="그룹 24">
            <g data-name="그룹 17">
                <path data-name="패스 16" d="M190.4 52.92a27.063 27.063 0 0 1-3.163 1.928c.136-.068.267-.14.4-.208a8.994 8.994 0 0 1-2.236.833c.154-.032.3-.068.457-.1a19.658 19.658 0 0 1-2.724.29c-.923.059-1.842.122-2.765.181-.52.036-1.045.068-1.566.1a1.3 1.3 0 0 0-.661.2 1.329 1.329 0 0 0-.534.4 1.919 1.919 0 0 0-.412 1.272 1.755 1.755 0 0 0 .606 1.19 1.82 1.82 0 0 0 1.272.412c1.792-.118 3.589-.226 5.381-.358a12.041 12.041 0 0 0 2.942-.539 14.835 14.835 0 0 0 2.733-1.226z" transform="translate(-10.008 78.613)" style="fill:#4893ff"/>
            </g>
            <g data-name="그룹 18">
                <path data-name="패스 17" d="M121.839 22.146a11.217 11.217 0 0 0 2.032.507 10.318 10.318 0 0 0 1.67.149 16.067 16.067 0 0 0 3.774-.425 18.847 18.847 0 0 0 3.335-1.109 15.1 15.1 0 0 0 3-1.765 11.919 11.919 0 0 0 4.055-5.39 8.743 8.743 0 0 0 .394-1.435 7.776 7.776 0 0 0 .195-1.828 4.8 4.8 0 0 0-.5-2.1 3.468 3.468 0 0 0-2.973-1.837 5.322 5.322 0 0 0-.76.054 2.41 2.41 0 0 0-.353.063 4.663 4.663 0 0 0-1.964 1.054 8.017 8.017 0 0 0-1.213 1.475 18.17 18.17 0 0 0-.778 1.389 37.051 37.051 0 0 0-4.118 13.508q-.183 1.663-.2 3.34a15.639 15.639 0 0 0 .312 3.729 8.143 8.143 0 0 0 1.643 3.376 6.341 6.341 0 0 0 1.321 1.186 7.01 7.01 0 0 0 .964.511 3.825 3.825 0 0 0 .638.231 6.266 6.266 0 0 0 1.154.19 6.514 6.514 0 0 0 3.068-.647 8.5 8.5 0 0 0 1.665-1.052 11.3 11.3 0 0 0 1.19-1.086c.367-.376.71-.769 1.059-1.163a1.261 1.261 0 0 0 .385-.548 1.311 1.311 0 0 0 .181-.665 1.789 1.789 0 0 0-.457-1.258 1.751 1.751 0 0 0-1.213-.566 1.692 1.692 0 0 0-1.258.457 15.307 15.307 0 0 1-2.548 2.471l.367-.258a6.353 6.353 0 0 1-1.385.738c.14-.054.285-.1.425-.158a4.79 4.79 0 0 1-1.208.281l.466-.041a3.921 3.921 0 0 1-1.054-.045l.462.081a3.77 3.77 0 0 1-.887-.29c.136.063.272.131.407.195a4.6 4.6 0 0 1-.91-.588c.113.1.226.195.339.29a5.331 5.331 0 0 1-.873-.959l.258.367a5.857 5.857 0 0 1-.7-1.335c.054.14.1.285.158.425a8.925 8.925 0 0 1-.484-2.308l.041.466a22.19 22.19 0 0 1-.018-3q.068-1.493.267-2.973a34.87 34.87 0 0 1 .262-1.674l-.081.462a36.112 36.112 0 0 1 2.041-7.06c.262-.652.548-1.29.846-1.923-.063.136-.131.272-.195.407.29-.606.593-1.2.914-1.788a9.51 9.51 0 0 1 1-1.539c-.1.113-.195.226-.29.339a3.826 3.826 0 0 1 .688-.638l-.367.258a2.835 2.835 0 0 1 .6-.317c-.14.054-.285.1-.425.158a2.744 2.744 0 0 1 .661-.149l-.466.041a2.232 2.232 0 0 1 .548.023l-.462-.081a2 2 0 0 1 .475.149c-.136-.063-.271-.131-.407-.195a1.734 1.734 0 0 1 .326.208 17.46 17.46 0 0 0-.339-.29 1.706 1.706 0 0 1 .3.326l-.258-.367a1.989 1.989 0 0 1 .235.457c-.054-.14-.1-.285-.158-.425a3.274 3.274 0 0 1 .167.778l-.041-.466a6.152 6.152 0 0 1-.1 1.525l.081-.462a8.857 8.857 0 0 1-.71 2.181c.063-.136.131-.272.195-.407a10.067 10.067 0 0 1-1.421 2.186c.1-.113.195-.226.29-.339a11.327 11.327 0 0 1-2.086 1.887l.367-.258a14.214 14.214 0 0 1-3.2 1.656c.14-.054.285-.1.425-.158a16.485 16.485 0 0 1-4.141.955l.466-.041a11.284 11.284 0 0 1-2.973-.109l.462.081a8.95 8.95 0 0 1-1.525-.416 1.753 1.753 0 0 0-2.2 1.127 1.758 1.758 0 0 0 .118 1.353 1.92 1.92 0 0 0 1.009.846z" transform="translate(20.952 103.797)" style="fill:#4893ff"/>
            </g>
            <path data-name="패스 18" d="M136.769 16.367a8.857 8.857 0 0 1-.71 2.181c.063-.136.131-.272.195-.407a10.067 10.067 0 0 1-1.421 2.186c.1-.113.195-.226.29-.339a11.327 11.327 0 0 1-2.086 1.887l.367-.258a14.214 14.214 0 0 1-3.2 1.656c.14-.054.285-.1.425-.158a16.485 16.485 0 0 1-4.141.955l.466-.041a11.284 11.284 0 0 1-2.973-.109l.462.081a8.949 8.949 0 0 1-1.525-.416 1.753 1.753 0 0 0-2.2 1.127 1.758 1.758 0 0 0 .118 1.353 1.908 1.908 0 0 0 1.009.851 11.217 11.217 0 0 0 2.032.507 10.317 10.317 0 0 0 1.67.149 16.066 16.066 0 0 0 3.774-.425 18.847 18.847 0 0 0 3.335-1.109 15.1 15.1 0 0 0 3-1.765 11.919 11.919 0 0 0 4.055-5.39 8.743 8.743 0 0 0 .394-1.435 7.776 7.776 0 0 0 .195-1.828" transform="translate(20.952 99.033)" style="fill:#4893ff"/>
            <path data-name="패스 20" d="M140.746 12.78a18.17 18.17 0 0 0-.778 1.389 37.052 37.052 0 0 0-4.118 13.508q-.183 1.663-.2 3.34a15.638 15.638 0 0 0 .312 3.729 8.143 8.143 0 0 0 1.643 3.376 6.342 6.342 0 0 0 1.321 1.186 7.01 7.01 0 0 0 .964.511 3.826 3.826 0 0 0 .638.231 6.265 6.265 0 0 0 1.154.19 6.513 6.513 0 0 0 3.068-.647 8.5 8.5 0 0 0 1.674-1.059 11.294 11.294 0 0 0 1.19-1.086c.367-.376.711-.769 1.059-1.163a1.261 1.261 0 0 0 .385-.548 1.311 1.311 0 0 0 .181-.665 1.789 1.789 0 0 0-.457-1.258 1.751 1.751 0 0 0-1.213-.566 1.692 1.692 0 0 0-1.258.457 15.308 15.308 0 0 1-2.548 2.471l.367-.258a6.355 6.355 0 0 1-1.385.738c.14-.054.285-.1.425-.158a4.79 4.79 0 0 1-1.208.281l.466-.041a3.92 3.92 0 0 1-1.054-.045l.462.081a3.77 3.77 0 0 1-.887-.29c.136.063.271.131.407.195a4.6 4.6 0 0 1-.91-.588c.113.1.226.195.339.29a5.331 5.331 0 0 1-.873-.959l.258.367a5.857 5.857 0 0 1-.7-1.335c.054.14.1.285.158.425a8.926 8.926 0 0 1-.484-2.308l.041.466a22.193 22.193 0 0 1-.018-3q.068-1.493.267-2.973a34.87 34.87 0 0 1 .262-1.674l-.081.462a36.113 36.113 0 0 1 2.041-7.06c.262-.652.548-1.29.846-1.923-.063.136-.131.272-.195.407.29-.606.593-1.2.914-1.788z" transform="translate(12.734 100.588)" style="fill:#4893ff"/>
            <g data-name="그룹 19">
                <path data-name="패스 21" d="M163.515 37.558c.063 0 .127 0 .19.009a1.973 1.973 0 0 0 1.258-.457 1.261 1.261 0 0 0 .385-.548 1.311 1.311 0 0 0 .181-.665l-.041-.466a1.742 1.742 0 0 0-.416-.792 17.46 17.46 0 0 0-.339-.29 1.713 1.713 0 0 0-.869-.276c-.063 0-.127 0-.19-.009a1.973 1.973 0 0 0-1.258.457 1.262 1.262 0 0 0-.385.548 1.311 1.311 0 0 0-.181.665l.041.466a1.742 1.742 0 0 0 .416.792c.113.1.226.195.339.29a1.687 1.687 0 0 0 .869.276z" transform="translate(-1.613 88.938)" style="fill:#4893ff"/>
            </g>
            <g data-name="그룹 20">
                <path data-name="패스 22" d="M170.884 33.6a53.491 53.491 0 0 0 6.245-4.7 44.4 44.4 0 0 0 5.376-5.652 35.579 35.579 0 0 0 4.032-6.281 32.943 32.943 0 0 0 2.706-7.349 9.016 9.016 0 0 0 .339-2.353 4.524 4.524 0 0 0-.195-1.3 4.536 4.536 0 0 0-.733-1.367 3.134 3.134 0 0 0-.86-.76 3.451 3.451 0 0 0-1.466-.484 3.365 3.365 0 0 0-.769.041 1.548 1.548 0 0 0-.353.086 4.052 4.052 0 0 0-1.33.738 5.5 5.5 0 0 0-1.186 1.493c-.321.552-.611 1.127-.91 1.693q-.944 1.8-1.828 3.625-1.846 3.8-3.5 7.7c-1.054 2.48-2.055 4.983-3.018 7.5s-1.887 5.055-2.792 7.6-1.788 5.1-2.666 7.648c-.213.625-.43 1.244-.643 1.869a1.751 1.751 0 0 0 3.331 1.082c1.4-4.068 2.8-8.141 4.268-12.182s3-8.06 4.679-12.02q1.405-3.326 2.951-6.589c-.063.136-.131.272-.195.407q.923-1.935 1.9-3.838c.326-.629.652-1.258.987-1.878a8.854 8.854 0 0 1 .932-1.5c-.1.113-.195.226-.29.339a2.754 2.754 0 0 1 .52-.48l-.367.258a2.038 2.038 0 0 1 .367-.195c-.14.054-.285.1-.425.158a1.563 1.563 0 0 1 .407-.091l-.466.041a1.6 1.6 0 0 1 .33.018l-.462-.081a1.731 1.731 0 0 1 .367.118c-.136-.063-.272-.131-.407-.195a1.881 1.881 0 0 1 .371.244 17.46 17.46 0 0 0-.339-.29 2.109 2.109 0 0 1 .344.38l-.258-.367a2.355 2.355 0 0 1 .267.507c-.054-.14-.1-.285-.158-.425a2.74 2.74 0 0 1 .14.656l-.041-.466a5.2 5.2 0 0 1-.081 1.3l.081-.462a28.849 28.849 0 0 1-2.385 7.119c.063-.136.131-.272.195-.407a35.237 35.237 0 0 1-3.77 6.164q-.625.821-1.29 1.607c.1-.113.195-.226.29-.339a44.568 44.568 0 0 1-6.539 6.227 51.453 51.453 0 0 1-2.041 1.511l.367-.258c-.543.38-1.054.76-1.611 1.122-.389.253-1.159.792-1.665 1.19-.321.253.027 1.172.249 1.552s-.077.91.882 1.376c.434.19 1.769-.724 2.122-1.054z" transform="translate(-4.569 105.756)" style="fill:#4893ff"/>
            </g>
            <path data-name="패스 23" d="M186.4 11.85a5.834 5.834 0 0 1-.1 1.045l.081-.462A28.85 28.85 0 0 1 184 19.552c.063-.136.131-.272.195-.407a35.232 35.232 0 0 1-3.77 6.164q-.624.821-1.29 1.607c.1-.113.195-.226.29-.339a44.568 44.568 0 0 1-6.539 6.227 51.453 51.453 0 0 1-2.041 1.511l.367-.258c-.543.38-1.054.76-1.611 1.122-.389.253-1.158.792-1.665 1.19-.321.253.027 1.172.249 1.552s-.077.91.882 1.376c.434.208 1.769-.706 2.127-1.032a53.492 53.492 0 0 0 6.245-4.7 44.4 44.4 0 0 0 5.376-5.652 35.578 35.578 0 0 0 4.032-6.281 32.943 32.943 0 0 0 2.706-7.349 9.016 9.016 0 0 0 .339-2.353z" transform="translate(-4.872 101.097)" style="fill:#4893ff"/>
            <path data-name="패스 28" d="M182.691 8.57c-.321.552-.611 1.127-.91 1.693q-.944 1.8-1.828 3.625-1.846 3.8-3.5 7.7c-1.054 2.48-2.055 4.983-3.018 7.5s-1.887 5.055-2.792 7.6-1.788 5.1-2.666 7.648c-.213.625-.43 1.244-.643 1.869a1.751 1.751 0 0 0 3.331 1.082c1.4-4.068 2.8-8.141 4.268-12.182s3-8.06 4.679-12.02q1.405-3.326 2.951-6.589c-.063.136-.131.272-.195.407q.923-1.935 1.9-3.838c.326-.629.652-1.258.987-1.878z" transform="translate(-4.57 102.892)" style="fill:#4893ff"/>
            <g data-name="그룹 21">
                <path data-name="패스 29" d="M203.916 52.317a8.9 8.9 0 0 0 1.308.629 6.263 6.263 0 0 0 1 .285 8.754 8.754 0 0 0 1.453.195 9.349 9.349 0 0 0 1.466-.091 5.292 5.292 0 0 0 1-.226 5.893 5.893 0 0 0 1.231-.525 7.717 7.717 0 0 0 .715-.493 3.716 3.716 0 0 0 .348-.3 5.792 5.792 0 0 0 .552-.647 4.384 4.384 0 0 0 .407-.76 2.04 2.04 0 0 0 .14-.394 4 4 0 0 0 .131-.864 3.716 3.716 0 0 0-.4-1.7 4.484 4.484 0 0 0-.48-.715 2.253 2.253 0 0 0-.321-.335 5.106 5.106 0 0 0-.679-.534 5.5 5.5 0 0 0-.855-.412 3.775 3.775 0 0 0-.5-.149 7.778 7.778 0 0 0-.964-.158 7.692 7.692 0 0 0-1.444.045 7.907 7.907 0 0 0-2.195.579 7.811 7.811 0 0 0-1.928 1.154 5.91 5.91 0 0 0-.679.625 8.464 8.464 0 0 0-.842 1.041 7.8 7.8 0 0 0-.643 1.235 5.523 5.523 0 0 0-.308.923 7.051 7.051 0 0 0-.172 2.8 5.184 5.184 0 0 0 .181.95 7.4 7.4 0 0 0 .5 1.3 7.669 7.669 0 0 0 .715 1.1 5.352 5.352 0 0 0 .584.656 7.336 7.336 0 0 0 1.765 1.281 8.119 8.119 0 0 0 2.068.76 8.332 8.332 0 0 0 2.222.195 9.412 9.412 0 0 0 2.322-.421 11.147 11.147 0 0 0 2.163-.964 12.442 12.442 0 0 0 1.919-1.407c.24-.213.471-.439.688-.674a1.261 1.261 0 0 0 .385-.548 1.311 1.311 0 0 0 .181-.665 1.973 1.973 0 0 0-.457-1.258 1.75 1.75 0 0 0-2.471-.109 10.953 10.953 0 0 1-1.656 1.444l.367-.258a9.239 9.239 0 0 1-2.077 1.1c.14-.054.285-.1.425-.158a7.873 7.873 0 0 1-1.987.457l.466-.041a6.815 6.815 0 0 1-1.769-.081l.462.081a6.515 6.515 0 0 1-1.643-.529c.136.063.272.131.407.195a6.232 6.232 0 0 1-1.312-.842c.113.1.226.195.339.29a5.354 5.354 0 0 1-.905-.987l.258.367a4.947 4.947 0 0 1-.588-1.113c.054.14.1.285.158.425a5.315 5.315 0 0 1-.308-1.376l.041.466a5.637 5.637 0 0 1 .072-1.512l-.081.462a5.726 5.726 0 0 1 .457-1.412c-.063.136-.131.272-.195.407a5.406 5.406 0 0 1 .751-1.159c-.1.113-.195.226-.29.339a5.869 5.869 0 0 1 1.109-1.009l-.367.258a6.456 6.456 0 0 1 1.444-.756c-.14.054-.285.1-.425.158a6.455 6.455 0 0 1 1.625-.367l-.466.041a5.454 5.454 0 0 1 1.358.045l-.462-.081a3.339 3.339 0 0 1 .86.272c-.136-.063-.272-.131-.407-.195a2.66 2.66 0 0 1 .543.353 17.46 17.46 0 0 0-.339-.29 2.419 2.419 0 0 1 .4.434l-.258-.367a2.257 2.257 0 0 1 .244.462c-.054-.14-.1-.285-.158-.425a1.9 1.9 0 0 1 .1.448l-.041-.466a1.818 1.818 0 0 1-.018.471l.081-.462a2.092 2.092 0 0 1-.158.493c.063-.136.131-.272.195-.407a2.341 2.341 0 0 1-.321.489c.1-.113.195-.226.29-.339a3.239 3.239 0 0 1-.615.552l.367-.258a4.1 4.1 0 0 1-.882.462c.14-.054.285-.1.425-.158a5.569 5.569 0 0 1-1.435.312l.466-.041a6.363 6.363 0 0 1-1.607-.072l.462.081a6.123 6.123 0 0 1-1.534-.489c.136.063.272.131.407.195a6.54 6.54 0 0 1-.466-.249 1.847 1.847 0 0 0-1.335-.235 1.343 1.343 0 0 0-.606.285 1.3 1.3 0 0 0-.471.471 1.759 1.759 0 0 0-.235 1.335 1.709 1.709 0 0 0 .742 1.082z" transform="translate(-23.147 82.894)" style="fill:#4893ff"/>
            </g>
            <path data-name="패스 30" d="M212.311 54.186a4.1 4.1 0 0 1-.883.462c.14-.054.285-.1.425-.158a5.568 5.568 0 0 1-1.435.312l.466-.041a6.363 6.363 0 0 1-1.607-.072l.462.081a6.125 6.125 0 0 1-1.534-.489c.136.063.272.131.407.195a6.54 6.54 0 0 1-.466-.249 1.847 1.847 0 0 0-1.335-.235 1.343 1.343 0 0 0-.606.285 1.3 1.3 0 0 0-.471.471 1.743 1.743 0 0 0 .52 2.412 8.9 8.9 0 0 0 1.308.629 6.262 6.262 0 0 0 1 .285 8.753 8.753 0 0 0 1.453.195 9.349 9.349 0 0 0 1.466-.091 5.294 5.294 0 0 0 1-.226 5.894 5.894 0 0 0 1.231-.525 7.715 7.715 0 0 0 .715-.493 3.712 3.712 0 0 0 .348-.3 5.785 5.785 0 0 0 .552-.647 4.382 4.382 0 0 0 .407-.76z" transform="translate(-25.483 78.048)" style="fill:#4893ff"/>
            <path data-name="패스 39" d="M210.916 45.425a3.774 3.774 0 0 0-.5-.149 7.781 7.781 0 0 0-.964-.158 7.691 7.691 0 0 0-1.444.045 7.907 7.907 0 0 0-2.195.579 7.812 7.812 0 0 0-1.928 1.154 5.91 5.91 0 0 0-.679.625 8.464 8.464 0 0 0-.842 1.041 7.8 7.8 0 0 0-.643 1.235 5.523 5.523 0 0 0-.308.923 7.051 7.051 0 0 0-.172 2.8 5.182 5.182 0 0 0 .181.95 7.391 7.391 0 0 0 .5 1.3 7.676 7.676 0 0 0 .715 1.1 5.353 5.353 0 0 0 .584.656 7.335 7.335 0 0 0 1.765 1.281 8.118 8.118 0 0 0 2.068.76 8.331 8.331 0 0 0 2.222.195 9.411 9.411 0 0 0 2.322-.421 11.148 11.148 0 0 0 2.163-.964 12.442 12.442 0 0 0 1.919-1.407c.24-.213.471-.439.688-.674a1.262 1.262 0 0 0 .385-.548 1.311 1.311 0 0 0 .181-.665 1.973 1.973 0 0 0-.457-1.258 1.75 1.75 0 0 0-2.477-.109 10.954 10.954 0 0 1-1.656 1.444l.367-.258a9.24 9.24 0 0 1-2.077 1.1c.14-.054.285-.1.425-.158a7.872 7.872 0 0 1-1.987.457l.466-.041a6.815 6.815 0 0 1-1.769-.081l.462.081a6.515 6.515 0 0 1-1.643-.529c.136.063.272.131.407.195a6.234 6.234 0 0 1-1.312-.842c.113.1.226.195.339.29a5.353 5.353 0 0 1-.905-.987l.258.367a4.946 4.946 0 0 1-.588-1.113c.054.14.1.285.158.425a5.315 5.315 0 0 1-.308-1.376l.041.466a5.638 5.638 0 0 1 .072-1.512l-.082.462a5.722 5.722 0 0 1 .457-1.412c-.063.136-.131.272-.195.407a5.408 5.408 0 0 1 .751-1.159c-.1.113-.195.226-.29.339a5.868 5.868 0 0 1 1.109-1.009l-.367.258a6.457 6.457 0 0 1 1.444-.756c-.14.054-.285.1-.425.158a6.456 6.456 0 0 1 1.625-.367l-.466.041a5.454 5.454 0 0 1 1.358.045z" transform="translate(-23.142 82.895)" style="fill:#4893ff"/>
            <g data-name="그룹 22">
                <path data-name="패스 40" d="M160.2 46.37q-.38 2.858-.484 5.738c-.014.434-.036.869-.027 1.3 0 .33.036.661.072.991a3.476 3.476 0 0 0 .1.534c.063.217.149.43.231.643a2.013 2.013 0 0 0 .113.244 5.045 5.045 0 0 0 .38.557 1.572 1.572 0 0 0 .181.208 3.154 3.154 0 0 0 .724.566 3.848 3.848 0 0 0 .846.353 4.228 4.228 0 0 0 1.009.131 5.289 5.289 0 0 0 1-.113 5.63 5.63 0 0 0 .973-.339 3.336 3.336 0 0 0 .529-.29 1.34 1.34 0 0 0 .511-.425 1.3 1.3 0 0 0 .339-.579 1.347 1.347 0 0 0 .063-.692 1.3 1.3 0 0 0-.176-.656 1.754 1.754 0 0 0-1.009-.851l-.462-.081a1.742 1.742 0 0 0-.891.2 3.381 3.381 0 0 1-.7.358c.14-.054.285-.1.425-.158a3.183 3.183 0 0 1-.765.176l.466-.041a2.306 2.306 0 0 1-.611-.023l.462.081a2.012 2.012 0 0 1-.484-.154c.136.063.272.131.407.195a1.634 1.634 0 0 1-.335-.217c.113.1.226.195.339.29a1.559 1.559 0 0 1-.285-.312l.258.367a1.9 1.9 0 0 1-.235-.457c.054.14.1.285.158.425a3.385 3.385 0 0 1-.172-.819l.041.466a10.766 10.766 0 0 1-.009-1.267c.014-.5.032-1 .059-1.5q.081-1.5.235-3 .088-.849.2-1.7a1.973 1.973 0 0 0-.457-1.258 1.261 1.261 0 0 0-.548-.385 1.311 1.311 0 0 0-.665-.181 1.762 1.762 0 0 0-1.258.457c-.1.113-.195.226-.29.339a1.852 1.852 0 0 0-.272.873z" transform="translate(-.428 83.113)" style="fill:#4893ff"/>
            </g>
            <path data-name="패스 41" d="M41.671 67.229c-4.435 1.267-9.309 1.131-14.531.882a1.407 1.407 0 0 1-1.34-1.4 1.4 1.4 0 0 1 1.475-1.4c4.661.231 9.227.326 13.689-.742a1.378 1.378 0 0 1 1.7 1.34 1.381 1.381 0 0 1-.993 1.32z" transform="translate(72.868 72.26)" style="fill:#4893ff"/>
            <path data-name="패스 42" d="M53.893 41.89h-.7a1.466 1.466 0 0 1-1.466-1.466v-.308A1.466 1.466 0 0 1 53.2 38.65h.7a1.466 1.466 0 0 1 1.466 1.466v.308a1.472 1.472 0 0 1-1.473 1.466z" transform="translate(58.673 86.425)" style="fill:#4893ff"/>
            <path data-name="패스 43" d="M25.8 62.186v-3.752a1.676 1.676 0 0 1 1.674-1.674 1.676 1.676 0 0 1 1.674 1.674v3.752a1.676 1.676 0 0 1-1.674 1.674 1.676 1.676 0 0 1-1.674-1.674z" transform="translate(72.868 76.51)" style="fill:#4893ff"/>
            <path data-name="패스 44" d="M87.241 67.234c-4.439 1.272-9.309 1.131-14.531.887a1.407 1.407 0 0 1-1.34-1.4 1.4 1.4 0 0 1 1.475-1.4c4.661.231 9.227.326 13.689-.742a1.378 1.378 0 0 1 1.7 1.34 1.374 1.374 0 0 1-.993 1.315z" transform="translate(47.921 72.254)" style="fill:#4893ff"/>
            <path data-name="패스 45" d="M71.37 62.186v-3.752a1.676 1.676 0 0 1 1.674-1.674 1.676 1.676 0 0 1 1.674 1.674v3.752a1.676 1.676 0 0 1-1.674 1.674 1.676 1.676 0 0 1-1.674-1.674z" transform="translate(47.921 76.51)" style="fill:#4893ff"/>
            <path data-name="패스 46" d="M55.69 39.021V27.975a1.385 1.385 0 0 1 1.385-1.385h.29a1.385 1.385 0 0 1 1.385 1.385v11.046a1.385 1.385 0 0 1-1.385 1.385h-.29a1.385 1.385 0 0 1-1.385-1.385z" transform="translate(56.505 93.027)" style="fill:#4893ff"/>
            <path data-name="패스 47" d="M102.57 39.021V27.975a1.385 1.385 0 0 1 1.385-1.385h.29a1.385 1.385 0 0 1 1.385 1.385v11.046a1.385 1.385 0 0 1-1.385 1.385h-.29a1.385 1.385 0 0 1-1.385-1.385z" transform="translate(30.84 93.027)" style="fill:#4893ff"/>
            <g data-name="그룹 23">
                <path data-name="패스 49" d="M27.4 26.2a1.543 1.543 0 0 1 1.575 1.543v1.548c.009.353.244 3.534 4.847 6.209a1.543 1.543 0 1 1-1.548 2.67 14.179 14.179 0 0 1-4.8-4.317 14.7 14.7 0 0 1-4.874 4.294 1.541 1.541 0 1 1-1.525-2.679 10.686 10.686 0 0 0 4.337-4.168 4.117 4.117 0 0 0 .5-1.842s0-.1-.009-.222v-1.457A1.564 1.564 0 0 1 27.4 26.2zm-1.5 3.276z" transform="translate(75.885 93.241)" style="fill:#4893ff"/>
            </g>
            <path data-name="패스 50" d="M69.28 37.05v.05a1.285 1.285 0 0 0 1.226 1.285c3.747.186 7.046.321 10.028-.615a1.288 1.288 0 0 0-.71-2.475 25.424 25.424 0 0 1-7.49.557v-1.821H80.2a1.284 1.284 0 0 0 1.285-1.285v-4.521A1.284 1.284 0 0 0 80.2 26.94h-9.635a1.285 1.285 0 1 0 0 2.57h7.861v1.955h-7.861a1.284 1.284 0 0 0-1.285 1.285z" transform="translate(49.065 92.836)" style="fill:#4893ff"/>
        </g>
    </g>
</svg>
