<svg width="24" height="24" viewBox="0 0 24 24" fill="none" xmlns="http://www.w3.org/2000/svg">
<path d="M7.90205 19.3008L4.78252 19.5549C4.73771 19.5585 4.69266 19.5522 4.65047 19.5367C4.60829 19.5212 4.57 19.4967 4.53821 19.4649C4.50642 19.4331 4.4819 19.3948 4.46637 19.3526C4.45084 19.3104 4.44467 19.2654 4.44826 19.2206L4.7014 16.1002C4.70705 16.0272 4.73829 15.9584 4.7896 15.9061L14.2901 6.40649C14.3189 6.37715 14.3532 6.35387 14.391 6.33796C14.4289 6.32205 14.4695 6.31384 14.5106 6.31384C14.5517 6.31384 14.5923 6.32205 14.6302 6.33796C14.6681 6.35387 14.7024 6.37715 14.7311 6.40649L17.5975 9.27288C17.6266 9.30174 17.6497 9.33613 17.6655 9.37397C17.6813 9.41182 17.6894 9.45237 17.6894 9.49337C17.6894 9.53437 17.6813 9.57498 17.6655 9.61282C17.6497 9.65066 17.6266 9.685 17.5975 9.71386L8.09256 19.2127C8.04118 19.2632 7.97385 19.2944 7.90205 19.3008V19.3008Z" fill="#4992FF"/>
<path d="M19.3348 7.52993L16.4679 4.66304C16.347 4.54214 16.151 4.54214 16.0301 4.66304L15.205 5.48812C15.0841 5.60901 15.0841 5.80502 15.205 5.92592L18.0719 8.79281C18.1928 8.91371 18.3888 8.91371 18.5097 8.79281L19.3348 7.96773C19.4557 7.84683 19.4557 7.65083 19.3348 7.52993Z" fill="#4992FF"/>
</svg>
