<svg xmlns="http://www.w3.org/2000/svg" width="24" height="24" viewBox="0 0 24 24">
    <defs>
        <clipPath id="nd951g7pna">
            <path data-name="사각형 75" transform="translate(616 446)" style="fill:none;stroke:#707070" d="M0 0h24v24H0z"/>
        </clipPath>
    </defs>
    <g data-name="마스크 그룹 29" transform="translate(-616 -446)" style="clip-path:url(#nd951g7pna)">
        <g data-name="그룹 36">
            <path data-name="패스 84" d="M51.154 42.826a9.894 9.894 0 1 0-13.113 9.357.949.949 0 0 0 .509-.737c0-.544-.012-1.944-.012-1.944a6.862 6.862 0 0 1-1.042.073 2.24 2.24 0 0 1-2.265-1.528 2.678 2.678 0 0 0-1.111-1.318c-.256-.165-.315-.359-.019-.414 1.367-.256 1.716 1.542 2.629 1.828a2.567 2.567 0 0 0 1.906-.152 1.971 1.971 0 0 1 .784-1.274c-2.322-.222-3.7-1.024-4.412-2.313l-.077-.144-.179-.41-.052-.15a6.937 6.937 0 0 1-.323-2.241 3.823 3.823 0 0 1 1.091-2.839 3.964 3.964 0 0 1 .172-2.852s1.005-.207 2.9 1.146a10.589 10.589 0 0 1 5.074-.1c.8-.524 2.255-1.268 2.843-1.059a3.683 3.683 0 0 1 .208 2.632 4.6 4.6 0 0 1 1.242 3.279 8.485 8.485 0 0 1-.254 2.036l-.081.298s-.049.137-.1.268l-.063.144c-.689 1.5-2.1 2.066-4.385 2.3.74.463.952 1.044.952 2.617s-.021 1.784-.016 2.145a1 1 0 0 0 .49.724 9.9 9.9 0 0 0 6.704-9.372z" transform="translate(586.739 415.437)" style="fill:#4992ff"/>
        </g>
    </g>
</svg>
