<svg xmlns="http://www.w3.org/2000/svg" width="24" height="24" viewBox="0 0 24 24">
    <defs>
        <clipPath id="xutxsx0poa">
            <path data-name="사각형 74" transform="translate(32 232)" style="fill:none;stroke:#707070" d="M0 0h24v24H0z"/>
        </clipPath>
    </defs>
    <g data-name="마스크 그룹 28" transform="translate(-32 -232)" style="clip-path:url(#xutxsx0poa)">
        <g data-name="그룹 34" transform="translate(-567.886 -544.48)">
            <path data-name="패스 78" d="M611.886 789.236a6.117 6.117 0 0 0-5.84 5.181 1.056 1.056 0 0 0 .9 1.321h9.874a1.055 1.055 0 0 0 .9-1.321 6.115 6.115 0 0 0-5.834-5.181z" style="fill:#4992ff"/>
            <path data-name="패스 79" d="M608.655 789.342a.418.418 0 0 0-.028-.736 4.818 4.818 0 0 0-2.045-.456 5.368 5.368 0 0 0-5.125 4.546.927.927 0 0 0 .792 1.16h2.8a.417.417 0 0 0 .4-.306 7.2 7.2 0 0 1 3.206-4.208z" style="fill:#4992ff"/>
            <circle data-name="타원 9" cx="3.311" cy="3.311" r="3.311" transform="translate(608.575 781.343)" style="fill:#4992ff"/>
            <path data-name="패스 80" d="M607.781 784.653a4.033 4.033 0 0 1 .709-2.274.355.355 0 0 0-.044-.473 2.9 2.9 0 1 0-1.864 5.128 2.867 2.867 0 0 0 1.391-.359.356.356 0 0 0 .136-.456 3.972 3.972 0 0 1-.328-1.566z" style="fill:#4992ff"/>
            <path data-name="패스 81" d="M615.117 789.342a.418.418 0 0 1 .027-.736 4.823 4.823 0 0 1 2.046-.456 5.369 5.369 0 0 1 5.125 4.546.927.927 0 0 1-.792 1.16h-2.8a.417.417 0 0 1-.4-.306 7.2 7.2 0 0 0-3.206-4.208z" style="fill:#4992ff"/>
            <path data-name="패스 82" d="M615.991 784.653a4.034 4.034 0 0 0-.709-2.274.356.356 0 0 1 .043-.473 2.9 2.9 0 1 1 1.865 5.128 2.874 2.874 0 0 1-1.392-.359.355.355 0 0 1-.135-.456 3.972 3.972 0 0 0 .328-1.566z" style="fill:#4992ff"/>
        </g>
    </g>
</svg>
