<svg xmlns="http://www.w3.org/2000/svg" width="24" height="24" viewBox="0 0 24 24">
    <defs>
        <clipPath id="33ypkbjypa">
            <path data-name="사각형 79" transform="translate(1366 223)" style="fill:none;stroke:#707070" d="M0 0h24v24H0z"/>
        </clipPath>
    </defs>
    <g data-name="마스크 그룹 32" transform="translate(-1366 -223)" style="clip-path:url(#33ypkbjypa)">
        <g data-name="그룹 39" transform="translate(917.255 -584.821)">
            <path data-name="패스 92" d="m456.1 828.1-3.537.288a.352.352 0 0 1-.379-.379l.287-3.538a.353.353 0 0 1 .1-.22l10.772-10.771a.35.35 0 0 1 .5 0l3.25 3.25a.352.352 0 0 1 0 .5L456.316 828a.353.353 0 0 1-.216.1z" style="fill:#4992ff"/>
            <rect data-name="사각형 78" width="5.299" height="2.025" rx=".351" transform="rotate(45 -746.49 967.613)" style="fill:#4992ff"/>
        </g>
    </g>
</svg>
